<svg xmlns="http://www.w3.org/2000/svg" xmlns:xlink="http://www.w3.org/1999/xlink" width="500" zoomAndPan="magnify" viewBox="0 0 375 374.999991" height="500" preserveAspectRatio="xMidYMid meet" version="1.0"><defs><g/><clipPath id="10a40125f0"><path d="M 172.621094 175.480469 L 260.277344 175.480469 L 260.277344 263.140625 L 172.621094 263.140625 Z M 172.621094 175.480469 " clip-rule="nonzero"/></clipPath><clipPath id="bb7593fb39"><path d="M 216.449219 175.480469 C 192.242188 175.480469 172.621094 195.105469 172.621094 219.3125 C 172.621094 243.515625 192.242188 263.140625 216.449219 263.140625 C 240.65625 263.140625 260.277344 243.515625 260.277344 219.3125 C 260.277344 195.105469 240.65625 175.480469 216.449219 175.480469 Z M 216.449219 175.480469 " clip-rule="nonzero"/></clipPath><clipPath id="78bb9cd837"><path d="M 0.621094 0.480469 L 88.277344 0.480469 L 88.277344 88.140625 L 0.621094 88.140625 Z M 0.621094 0.480469 " clip-rule="nonzero"/></clipPath><clipPath id="c47591d6cf"><path d="M 44.449219 0.480469 C 20.242188 0.480469 0.621094 20.105469 0.621094 44.3125 C 0.621094 68.515625 20.242188 88.140625 44.449219 88.140625 C 68.65625 88.140625 88.277344 68.515625 88.277344 44.3125 C 88.277344 20.105469 68.65625 0.480469 44.449219 0.480469 Z M 44.449219 0.480469 " clip-rule="nonzero"/></clipPath><clipPath id="e39930edb1"><rect x="0" width="89" y="0" height="89"/></clipPath><clipPath id="3a5243f07b"><path d="M 113.605469 165.933594 L 202.007812 165.933594 L 202.007812 254.339844 L 113.605469 254.339844 Z M 113.605469 165.933594 " clip-rule="nonzero"/></clipPath><clipPath id="1886fa45eb"><path d="M 157.808594 165.933594 C 133.394531 165.933594 113.605469 185.726562 113.605469 210.136719 C 113.605469 234.546875 133.394531 254.339844 157.808594 254.339844 C 182.21875 254.339844 202.007812 234.546875 202.007812 210.136719 C 202.007812 185.726562 182.21875 165.933594 157.808594 165.933594 Z M 157.808594 165.933594 " clip-rule="nonzero"/></clipPath><clipPath id="5d703cefdc"><path d="M 0.605469 0.933594 L 89.007812 0.933594 L 89.007812 89.339844 L 0.605469 89.339844 Z M 0.605469 0.933594 " clip-rule="nonzero"/></clipPath><clipPath id="f418265662"><path d="M 44.808594 0.933594 C 20.394531 0.933594 0.605469 20.726562 0.605469 45.136719 C 0.605469 69.546875 20.394531 89.339844 44.808594 89.339844 C 69.21875 89.339844 89.007812 69.546875 89.007812 45.136719 C 89.007812 20.726562 69.21875 0.933594 44.808594 0.933594 Z M 44.808594 0.933594 " clip-rule="nonzero"/></clipPath><clipPath id="fe38108318"><rect x="0" width="90" y="0" height="90"/></clipPath><clipPath id="afef94cbbf"><path d="M 168.527344 107.730469 L 257.207031 107.730469 L 257.207031 196.410156 L 168.527344 196.410156 Z M 168.527344 107.730469 " clip-rule="nonzero"/></clipPath><clipPath id="dbd06080e4"><path d="M 212.867188 107.730469 C 188.378906 107.730469 168.527344 127.582031 168.527344 152.070312 C 168.527344 176.558594 188.378906 196.410156 212.867188 196.410156 C 237.355469 196.410156 257.207031 176.558594 257.207031 152.070312 C 257.207031 127.582031 237.355469 107.730469 212.867188 107.730469 Z M 212.867188 107.730469 " clip-rule="nonzero"/></clipPath><clipPath id="862bbf1e14"><path d="M 0.527344 0.730469 L 89.207031 0.730469 L 89.207031 89.410156 L 0.527344 89.410156 Z M 0.527344 0.730469 " clip-rule="nonzero"/></clipPath><clipPath id="89f6576d50"><path d="M 44.867188 0.730469 C 20.378906 0.730469 0.527344 20.582031 0.527344 45.070312 C 0.527344 69.558594 20.378906 89.410156 44.867188 89.410156 C 69.355469 89.410156 89.207031 69.558594 89.207031 45.070312 C 89.207031 20.582031 69.355469 0.730469 44.867188 0.730469 Z M 44.867188 0.730469 " clip-rule="nonzero"/></clipPath><clipPath id="24bfda0110"><rect x="0" width="90" y="0" height="90"/></clipPath><clipPath id="d6325c8b8e"><path d="M 106.628906 89.03125 L 193.082031 89.03125 L 193.082031 175.480469 L 106.628906 175.480469 Z M 106.628906 89.03125 " clip-rule="nonzero"/></clipPath><clipPath id="d703a4063c"><path d="M 149.855469 89.03125 C 125.984375 89.03125 106.628906 108.386719 106.628906 132.257812 C 106.628906 156.128906 125.984375 175.480469 149.855469 175.480469 C 173.726562 175.480469 193.082031 156.128906 193.082031 132.257812 C 193.082031 108.386719 173.726562 89.03125 149.855469 89.03125 Z M 149.855469 89.03125 " clip-rule="nonzero"/></clipPath><clipPath id="4b32e87c52"><path d="M 0.628906 0.03125 L 87.082031 0.03125 L 87.082031 86.480469 L 0.628906 86.480469 Z M 0.628906 0.03125 " clip-rule="nonzero"/></clipPath><clipPath id="1bbcbeaef1"><path d="M 43.855469 0.03125 C 19.984375 0.03125 0.628906 19.386719 0.628906 43.257812 C 0.628906 67.128906 19.984375 86.480469 43.855469 86.480469 C 67.726562 86.480469 87.082031 67.128906 87.082031 43.257812 C 87.082031 19.386719 67.726562 0.03125 43.855469 0.03125 Z M 43.855469 0.03125 " clip-rule="nonzero"/></clipPath><clipPath id="ec58c52dbb"><rect x="0" width="88" y="0" height="87"/></clipPath><clipPath id="97d00cf24d"><path d="M 137 116 L 213 116 L 213 241 L 137 241 Z M 137 116 " clip-rule="nonzero"/></clipPath><clipPath id="013a375e56"><path d="M 126.636719 129.566406 L 186.472656 105.480469 L 236.878906 230.71875 L 177.042969 254.800781 Z M 126.636719 129.566406 " clip-rule="nonzero"/></clipPath><clipPath id="18ad6ffdc3"><path d="M 126.636719 129.566406 L 186.472656 105.480469 L 236.878906 230.71875 L 177.042969 254.800781 Z M 126.636719 129.566406 " clip-rule="nonzero"/></clipPath><clipPath id="c4fe912855"><path d="M 126.636719 129.566406 L 186.472656 105.480469 L 236.878906 230.71875 L 177.042969 254.800781 Z M 126.636719 129.566406 " clip-rule="nonzero"/></clipPath><clipPath id="1eeddc63de"><rect x="0" width="252" y="0" height="60"/></clipPath></defs><rect x="-37.5" width="450" fill="#ffffff" y="-37.499999" height="449.999989" fill-opacity="1"/><rect x="-37.5" width="450" fill="#ffffff" y="-37.499999" height="449.999989" fill-opacity="1"/><g clip-path="url(#10a40125f0)"><g clip-path="url(#bb7593fb39)"><g transform="matrix(1, 0, 0, 1, 172, 175)"><g clip-path="url(#e39930edb1)"><g clip-path="url(#78bb9cd837)"><g clip-path="url(#c47591d6cf)"><path fill="#ea5b6f" d="M 0.621094 0.480469 L 88.277344 0.480469 L 88.277344 88.140625 L 0.621094 88.140625 Z M 0.621094 0.480469 " fill-opacity="1" fill-rule="nonzero"/></g></g></g></g></g></g><g clip-path="url(#3a5243f07b)"><g clip-path="url(#1886fa45eb)"><g transform="matrix(1, 0, 0, 1, 113, 165)"><g clip-path="url(#fe38108318)"><g clip-path="url(#5d703cefdc)"><g clip-path="url(#f418265662)"><path fill="#ff894f" d="M 0.605469 0.933594 L 89.007812 0.933594 L 89.007812 89.339844 L 0.605469 89.339844 Z M 0.605469 0.933594 " fill-opacity="1" fill-rule="nonzero"/></g></g></g></g></g></g><g clip-path="url(#afef94cbbf)"><g clip-path="url(#dbd06080e4)"><g transform="matrix(1, 0, 0, 1, 168, 107)"><g clip-path="url(#24bfda0110)"><g clip-path="url(#862bbf1e14)"><g clip-path="url(#89f6576d50)"><path fill="#ffcb61" d="M 0.527344 0.730469 L 89.207031 0.730469 L 89.207031 89.410156 L 0.527344 89.410156 Z M 0.527344 0.730469 " fill-opacity="1" fill-rule="nonzero"/></g></g></g></g></g></g><g clip-path="url(#d6325c8b8e)"><g clip-path="url(#d703a4063c)"><g transform="matrix(1, 0, 0, 1, 106, 89)"><g clip-path="url(#ec58c52dbb)"><g clip-path="url(#4b32e87c52)"><g clip-path="url(#1bbcbeaef1)"><path fill="#77bef0" d="M 0.628906 0.03125 L 87.082031 0.03125 L 87.082031 86.480469 L 0.628906 86.480469 Z M 0.628906 0.03125 " fill-opacity="1" fill-rule="nonzero"/></g></g></g></g></g></g><g clip-path="url(#97d00cf24d)"><g clip-path="url(#013a375e56)"><g clip-path="url(#18ad6ffdc3)"><g clip-path="url(#c4fe912855)"><path fill="#000000" d="M 206.464844 160.265625 C 205.632812 159.8125 204.769531 159.441406 203.871094 159.148438 C 203.554688 159.054688 203.28125 158.890625 203.050781 158.65625 C 202.816406 158.421875 202.65625 158.148438 202.5625 157.832031 C 202.476562 157.011719 202.554688 156.210938 202.796875 155.421875 C 202.976562 154.484375 202.984375 153.546875 202.816406 152.605469 C 202.34375 150.25 200.699219 148.4375 198.757812 147.128906 C 198.949219 141.945312 197.929688 137.011719 195.691406 132.328125 C 191.503906 123.832031 183.214844 118.207031 173.960938 116.785156 C 171.734375 116.4375 169.496094 116.328125 167.246094 116.460938 C 164.996094 116.589844 162.785156 116.957031 160.617188 117.558594 C 158.445312 118.164062 156.367188 118.988281 154.371094 120.035156 C 152.378906 121.082031 150.519531 122.332031 148.792969 123.777344 C 147.085938 125.242188 145.550781 126.871094 144.1875 128.664062 C 142.824219 130.457031 141.664062 132.375 140.703125 134.414062 C 139.746094 136.453125 139.007812 138.570312 138.496094 140.769531 C 137.984375 142.964844 137.707031 145.191406 137.664062 147.449219 C 137.664062 151.199219 138.292969 154.839844 139.554688 158.375 C 140.816406 161.910156 142.632812 165.128906 145.003906 168.035156 C 145.183594 172.742188 146.0625 177.863281 149.160156 181.59375 C 150.46875 183.144531 152.050781 184.324219 153.910156 185.128906 C 155.160156 185.714844 156.261719 186.507812 157.210938 187.515625 C 158.160156 188.523438 158.890625 189.667969 159.40625 190.957031 C 160.21875 192.886719 160.523438 195.175781 161.847656 196.859375 C 163.335938 198.753906 165.9375 199.300781 168.203125 198.78125 C 168.867188 198.625 169.503906 198.390625 170.105469 198.066406 C 180.511719 209.042969 190.921875 220.015625 201.328125 230.992188 L 210.347656 240.503906 C 210.492188 240.683594 210.679688 240.804688 210.902344 240.863281 C 211.128906 240.921875 211.347656 240.90625 211.5625 240.820312 C 211.777344 240.734375 211.945312 240.589844 212.066406 240.394531 C 212.191406 240.195312 212.242188 239.980469 212.222656 239.746094 C 210.164062 221.941406 208.109375 204.136719 206.054688 186.328125 C 205.53125 181.8125 205.011719 177.296875 204.488281 172.78125 C 205.351562 172.910156 206.210938 172.871094 207.058594 172.667969 C 207.875 172.523438 208.605469 172.1875 209.25 171.664062 C 209.894531 171.144531 210.378906 170.496094 210.695312 169.730469 C 210.925781 168.917969 211 168.09375 210.925781 167.25 C 210.847656 166.410156 210.625 165.609375 210.253906 164.851562 C 209.460938 162.933594 208.199219 161.402344 206.464844 160.265625 Z M 172.257812 187.046875 C 170.804688 184.953125 168.394531 184.460938 166.40625 183.097656 C 166.34375 183.054688 166.285156 183.007812 166.226562 182.960938 C 166.253906 182.882812 166.273438 182.804688 166.285156 182.722656 C 166.527344 181.050781 167.117188 179.507812 168.046875 178.101562 C 168.980469 176.691406 170.167969 175.550781 171.609375 174.679688 C 173.132812 173.644531 174.816406 173.128906 176.660156 173.132812 C 178.5 173.238281 179.636719 174.332031 180.34375 175.964844 C 181.128906 177.78125 181.675781 179.675781 183.117188 181.117188 C 183.84375 181.808594 184.671875 182.355469 185.59375 182.75 C 186.519531 183.144531 187.480469 183.367188 188.484375 183.414062 C 189.480469 183.523438 190.453125 183.40625 191.394531 183.066406 C 192.335938 182.726562 193.15625 182.199219 193.855469 181.480469 C 194.859375 180.242188 195.371094 178.824219 195.398438 177.226562 C 195.503906 175.84375 195.273438 174.519531 194.703125 173.25 C 194.046875 171.890625 192.765625 170.777344 192.453125 169.269531 C 192.136719 167.746094 192.546875 165.515625 194 164.6875 C 195.816406 163.652344 198.355469 164.925781 199.28125 166.613281 C 200.203125 168.296875 200.355469 170.28125 201.871094 171.621094 C 202 171.734375 202.136719 171.835938 202.277344 171.929688 C 202.421875 173.15625 202.5625 174.382812 202.703125 175.609375 L 178.988281 204.402344 L 171.789062 196.8125 C 172.566406 196.035156 173.105469 195.121094 173.40625 194.0625 C 173.738281 192.867188 173.804688 191.65625 173.601562 190.429688 C 173.402344 189.203125 172.953125 188.078125 172.257812 187.046875 Z M 209.777344 236.871094 C 204.519531 231.324219 199.257812 225.78125 194 220.234375 L 206.152344 205.480469 C 206.898438 211.933594 207.644531 218.390625 208.390625 224.847656 C 208.851562 228.855469 209.316406 232.863281 209.777344 236.871094 Z M 205.816406 202.582031 C 205.808594 202.59375 205.800781 202.601562 205.789062 202.613281 L 192.542969 218.695312 C 188.503906 214.4375 184.46875 210.183594 180.429688 205.925781 C 180.492188 205.875 180.546875 205.820312 180.597656 205.757812 L 203.039062 178.515625 Z M 208.851562 168.421875 C 208.667969 170.007812 207.089844 170.703125 205.648438 170.757812 C 204.855469 170.808594 204.121094 170.625 203.445312 170.203125 C 202.632812 169.648438 202.316406 168.652344 202 167.765625 C 201.304688 165.8125 200.449219 164.085938 198.546875 163.066406 C 196.8125 162.140625 194.550781 161.890625 192.828125 162.949219 C 192.09375 163.464844 191.507812 164.113281 191.070312 164.898438 C 190.628906 165.683594 190.382812 166.523438 190.328125 167.421875 C 190.226562 168.261719 190.28125 169.089844 190.488281 169.90625 C 190.695312 170.726562 191.039062 171.480469 191.527344 172.171875 C 192.363281 173.40625 193.15625 174.464844 193.296875 176.007812 C 193.449219 177.242188 193.246094 178.414062 192.6875 179.523438 C 191.730469 181.222656 189.640625 181.539062 187.871094 181.234375 C 186.882812 181.089844 185.992188 180.714844 185.195312 180.113281 C 184.398438 179.511719 183.789062 178.753906 183.375 177.84375 C 182.601562 176.199219 182.1875 174.316406 180.933594 172.9375 C 178.042969 169.746094 173.242188 171.113281 170.128906 173.140625 C 168.746094 174.039062 167.570312 175.152344 166.605469 176.492188 C 165.640625 177.828125 164.945312 179.296875 164.527344 180.894531 C 163.683594 179.085938 163.792969 176.867188 164.257812 174.84375 C 164.5625 173.523438 162.484375 173.226562 162.183594 174.535156 C 161.59375 177.09375 161.523438 179.898438 162.84375 182.257812 C 163.949219 184.222656 165.757812 185.21875 167.714844 186.164062 C 169.628906 187.089844 171.074219 188.335938 171.488281 190.53125 C 171.902344 192.710938 171.296875 195.042969 169.265625 196.171875 C 167.574219 197.109375 164.925781 197.285156 163.566406 195.65625 C 162.355469 194.207031 162.101562 192 161.394531 190.289062 C 160.394531 187.714844 158.753906 185.652344 156.46875 184.105469 C 154.777344 183.046875 152.945312 182.503906 151.488281 181.058594 C 148.75 178.335938 147.6875 174.433594 147.285156 170.617188 C 147.445312 170.78125 147.597656 170.945312 147.757812 171.109375 C 148.019531 171.367188 148.289062 171.621094 148.558594 171.867188 C 149.558594 172.78125 150.839844 171.117188 149.84375 170.207031 C 148.839844 169.289062 147.902344 168.304688 147.03125 167.261719 C 146.96875 167.039062 146.832031 166.875 146.628906 166.765625 C 144.875 164.59375 143.433594 162.226562 142.308594 159.667969 C 141.1875 157.109375 140.421875 154.449219 140.011719 151.683594 C 139.738281 149.5 139.703125 147.316406 139.914062 145.125 C 140.121094 142.933594 140.566406 140.796875 141.25 138.707031 C 141.929688 136.617188 142.832031 134.628906 143.953125 132.742188 C 145.074219 130.855469 146.386719 129.113281 147.894531 127.519531 C 149.351562 125.996094 150.953125 124.648438 152.703125 123.472656 C 154.449219 122.296875 156.304688 121.324219 158.261719 120.550781 C 160.222656 119.777344 162.238281 119.222656 164.320312 118.886719 C 166.398438 118.550781 168.488281 118.441406 170.59375 118.554688 C 179.21875 119.019531 187.457031 123.203125 192.269531 130.527344 C 196.308594 136.683594 197.429688 144.539062 196.171875 151.714844 C 196.121094 152.003906 196.066406 152.292969 196.007812 152.582031 C 195.726562 153.910156 197.804688 154.210938 198.082031 152.890625 C 198.308594 151.8125 198.476562 150.722656 198.589844 149.628906 C 199.203125 150.09375 199.703125 150.660156 200.089844 151.328125 C 200.476562 151.992188 200.722656 152.707031 200.824219 153.472656 C 200.964844 154.996094 200.226562 156.453125 200.460938 157.976562 C 200.601562 158.753906 200.9375 159.433594 201.46875 160.015625 C 202 160.601562 202.644531 161 203.402344 161.210938 C 205.0625 161.703125 206.402344 162.652344 207.417969 164.058594 C 208.421875 165.339844 208.902344 166.792969 208.851562 168.421875 Z M 182.410156 146.355469 C 184.414062 148.441406 184.742188 151.886719 183.648438 154.492188 C 182.304688 157.699219 178.742188 159.039062 175.480469 158.21875 C 173.964844 157.886719 172.703125 157.128906 171.695312 155.945312 C 170.988281 154.890625 170.570312 153.738281 170.433594 152.476562 C 170.132812 150.832031 169.511719 149.316406 168.578125 147.925781 C 167.644531 146.539062 166.472656 145.398438 165.0625 144.5 C 163.933594 143.746094 165.226562 142.089844 166.34375 142.839844 C 167.835938 143.796875 169.097656 145 170.125 146.441406 C 171.15625 147.886719 171.882812 149.472656 172.308594 151.195312 C 172.546875 152.234375 172.582031 153.429688 173.144531 154.363281 C 173.527344 154.894531 174.003906 155.328125 174.570312 155.660156 C 175.136719 155.992188 175.746094 156.191406 176.398438 156.265625 C 177.125 156.417969 177.851562 156.410156 178.574219 156.242188 C 179.296875 156.074219 179.953125 155.765625 180.539062 155.308594 C 181.046875 154.84375 181.4375 154.292969 181.71875 153.664062 C 181.996094 153.035156 182.140625 152.375 182.152344 151.683594 C 182.261719 150.363281 181.929688 149.167969 181.152344 148.09375 C 180.390625 147.132812 179.285156 146.484375 178.4375 145.601562 C 176.144531 143.214844 175.523438 139.84375 175.847656 136.652344 C 175.980469 135.300781 178.058594 135.613281 177.921875 136.960938 C 177.644531 138.980469 177.96875 140.898438 178.886719 142.71875 C 179.75 144.273438 181.214844 145.113281 182.410156 146.355469 Z M 182.410156 146.355469 " fill-opacity="1" fill-rule="nonzero"/></g></g></g></g><g transform="matrix(1, 0, 0, 1, 70, 238)"><g clip-path="url(#1eeddc63de)"><g fill="#272727" fill-opacity="1"><g transform="translate(0.417061, 38.10971)"><g><path d="M 10.578125 -0.0625 C 10.054688 0 9.421875 0.0078125 8.671875 -0.03125 C 7.921875 -0.0703125 7.128906 -0.203125 6.296875 -0.421875 C 5.472656 -0.640625 4.679688 -0.957031 3.921875 -1.375 C 3.503906 -1.613281 3.054688 -1.945312 2.578125 -2.375 C 2.097656 -2.8125 1.679688 -3.300781 1.328125 -3.84375 C 0.984375 -4.394531 0.8125 -4.953125 0.8125 -5.515625 C 0.8125 -5.816406 0.878906 -6.113281 1.015625 -6.40625 C 1.210938 -6.882812 1.582031 -7.140625 2.125 -7.171875 C 2.664062 -7.203125 3.125 -7.085938 3.5 -6.828125 C 3.800781 -6.609375 3.992188 -6.34375 4.078125 -6.03125 C 4.171875 -5.726562 4.265625 -5.429688 4.359375 -5.140625 C 4.453125 -4.847656 4.65625 -4.59375 4.96875 -4.375 C 5.59375 -3.976562 6.363281 -3.695312 7.28125 -3.53125 C 8.195312 -3.375 9.101562 -3.363281 10 -3.5 C 10.90625 -3.644531 11.617188 -3.96875 12.140625 -4.46875 C 12.453125 -4.78125 12.691406 -5.160156 12.859375 -5.609375 C 13.035156 -6.066406 13.125 -6.535156 13.125 -7.015625 C 13.125 -8.015625 12.800781 -8.734375 12.15625 -9.171875 C 11.519531 -9.609375 10.691406 -9.96875 9.671875 -10.25 C 7.816406 -10.75 6.445312 -11.441406 5.5625 -12.328125 C 4.6875 -13.210938 4.332031 -14.457031 4.5 -16.0625 C 4.675781 -17.414062 5.164062 -18.546875 5.96875 -19.453125 C 6.78125 -20.367188 7.773438 -21.0625 8.953125 -21.53125 C 10.128906 -22 11.335938 -22.234375 12.578125 -22.234375 C 13.273438 -22.234375 13.945312 -22.164062 14.59375 -22.03125 C 15.25 -21.90625 15.867188 -21.703125 16.453125 -21.421875 C 16.765625 -21.285156 16.976562 -21.113281 17.09375 -20.90625 C 17.21875 -20.707031 17.28125 -20.488281 17.28125 -20.25 C 17.28125 -19.832031 17.109375 -19.4375 16.765625 -19.0625 C 16.429688 -18.695312 16.015625 -18.515625 15.515625 -18.515625 C 15.054688 -18.515625 14.609375 -18.613281 14.171875 -18.8125 C 13.734375 -19.007812 13.296875 -19.128906 12.859375 -19.171875 C 12.410156 -19.210938 11.953125 -19.195312 11.484375 -19.125 C 11.015625 -19.0625 10.570312 -18.9375 10.15625 -18.75 C 9.851562 -18.59375 9.503906 -18.3125 9.109375 -17.90625 C 8.710938 -17.507812 8.378906 -17.070312 8.109375 -16.59375 C 7.835938 -16.113281 7.703125 -15.65625 7.703125 -15.21875 C 7.703125 -14.71875 7.863281 -14.351562 8.1875 -14.125 C 8.519531 -13.894531 8.90625 -13.738281 9.34375 -13.65625 C 9.78125 -13.582031 10.160156 -13.515625 10.484375 -13.453125 C 11.378906 -13.328125 12.25 -13.085938 13.09375 -12.734375 C 13.945312 -12.390625 14.632812 -11.835938 15.15625 -11.078125 C 15.613281 -10.441406 15.9375 -9.71875 16.125 -8.90625 C 16.320312 -8.101562 16.421875 -7.300781 16.421875 -6.5 C 16.421875 -5.863281 16.335938 -5.195312 16.171875 -4.5 C 16.015625 -3.8125 15.722656 -3.160156 15.296875 -2.546875 C 14.867188 -1.929688 14.273438 -1.398438 13.515625 -0.953125 C 12.753906 -0.515625 11.773438 -0.21875 10.578125 -0.0625 Z M 10.578125 -0.0625 "/></g></g></g><g fill="#272727" fill-opacity="1"><g transform="translate(18.505616, 38.10971)"><g><path d="M 7.3125 0.84375 C 6.769531 0.84375 6.394531 0.65625 6.1875 0.28125 C 5.976562 -0.0820312 5.800781 -0.445312 5.65625 -0.8125 L 3.265625 -6.921875 C 3.128906 -7.222656 2.972656 -7.597656 2.796875 -8.046875 C 2.628906 -8.492188 2.453125 -8.945312 2.265625 -9.40625 C 2.078125 -9.863281 1.921875 -10.269531 1.796875 -10.625 C 1.679688 -10.988281 1.625 -11.234375 1.625 -11.359375 C 1.625 -11.734375 1.773438 -12.078125 2.078125 -12.390625 C 2.390625 -12.703125 2.742188 -12.875 3.140625 -12.90625 L 3.390625 -12.90625 C 3.921875 -12.8125 4.289062 -12.546875 4.5 -12.109375 C 4.71875 -11.679688 4.90625 -11.25 5.0625 -10.8125 L 7.765625 -3.890625 C 8.003906 -4.234375 8.273438 -4.671875 8.578125 -5.203125 C 8.890625 -5.742188 9.242188 -6.21875 9.640625 -6.625 C 10.046875 -7.039062 10.5 -7.25 11 -7.25 C 11.4375 -7.25 11.894531 -7.070312 12.375 -6.71875 C 12.851562 -6.375 13.304688 -5.96875 13.734375 -5.5 C 14.160156 -5.03125 14.503906 -4.632812 14.765625 -4.3125 C 15.328125 -5.332031 15.867188 -6.367188 16.390625 -7.421875 C 16.910156 -8.484375 17.390625 -9.546875 17.828125 -10.609375 C 17.960938 -10.921875 18.085938 -11.238281 18.203125 -11.5625 C 18.328125 -11.882812 18.503906 -12.164062 18.734375 -12.40625 C 18.960938 -12.644531 19.289062 -12.765625 19.71875 -12.765625 C 20.113281 -12.765625 20.46875 -12.640625 20.78125 -12.390625 C 21.101562 -12.140625 21.265625 -11.773438 21.265625 -11.296875 C 21.265625 -10.929688 21.179688 -10.554688 21.015625 -10.171875 C 20.847656 -9.785156 20.703125 -9.441406 20.578125 -9.140625 C 20.023438 -7.878906 19.457031 -6.65625 18.875 -5.46875 C 18.289062 -4.28125 17.59375 -3 16.78125 -1.625 C 16.582031 -1.28125 16.296875 -0.921875 15.921875 -0.546875 C 15.554688 -0.179688 15.171875 0.0078125 14.765625 0.03125 C 14.566406 0.03125 14.367188 -0.0195312 14.171875 -0.125 C 13.972656 -0.238281 13.789062 -0.4375 13.625 -0.71875 C 13.289062 -1.238281 12.925781 -1.734375 12.53125 -2.203125 C 12.144531 -2.671875 11.722656 -3.113281 11.265625 -3.53125 C 10.898438 -3.03125 10.535156 -2.53125 10.171875 -2.03125 C 9.816406 -1.53125 9.453125 -1.023438 9.078125 -0.515625 C 8.835938 -0.171875 8.59375 0.140625 8.34375 0.421875 C 8.09375 0.703125 7.75 0.84375 7.3125 0.84375 Z M 7.3125 0.84375 "/></g></g></g><g fill="#272727" fill-opacity="1"><g transform="translate(40.577572, 38.10971)"><g><path d="M 6.375 -0.0625 C 5.320312 -0.0625 4.445312 -0.359375 3.75 -0.953125 C 3.050781 -1.554688 2.488281 -2.332031 2.0625 -3.28125 C 1.644531 -4.226562 1.34375 -5.25 1.15625 -6.34375 C 0.96875 -7.445312 0.875 -8.5 0.875 -9.5 C 0.875 -10.175781 0.921875 -10.960938 1.015625 -11.859375 C 1.117188 -12.765625 1.320312 -13.707031 1.625 -14.6875 C 1.9375 -15.675781 2.394531 -16.582031 3 -17.40625 C 3.550781 -18.164062 4.222656 -18.804688 5.015625 -19.328125 C 5.804688 -19.847656 6.671875 -20.109375 7.609375 -20.109375 C 8.890625 -20.109375 9.925781 -19.707031 10.71875 -18.90625 C 11.519531 -18.101562 12.0625 -17.132812 12.34375 -16 C 12.445312 -15.632812 12.515625 -15.207031 12.546875 -14.71875 C 12.585938 -14.226562 12.609375 -13.765625 12.609375 -13.328125 C 12.609375 -12.890625 12.585938 -12.539062 12.546875 -12.28125 C 12.472656 -11.820312 12.378906 -11.351562 12.265625 -10.875 C 12.160156 -10.394531 11.859375 -10.066406 11.359375 -9.890625 C 10.816406 -9.671875 10.207031 -9.519531 9.53125 -9.4375 C 8.851562 -9.351562 8.210938 -9.253906 7.609375 -9.140625 C 6.972656 -9.035156 6.34375 -8.894531 5.71875 -8.71875 C 5.101562 -8.539062 4.566406 -8.519531 4.109375 -8.65625 C 4.128906 -8.320312 4.175781 -7.863281 4.25 -7.28125 C 4.332031 -6.695312 4.453125 -6.097656 4.609375 -5.484375 C 4.773438 -4.878906 5.015625 -4.363281 5.328125 -3.9375 C 5.648438 -3.507812 6.050781 -3.296875 6.53125 -3.296875 C 6.90625 -3.296875 7.3125 -3.441406 7.75 -3.734375 C 8.195312 -4.035156 8.640625 -4.394531 9.078125 -4.8125 C 9.515625 -5.238281 9.90625 -5.648438 10.25 -6.046875 C 10.582031 -6.429688 10.976562 -6.644531 11.4375 -6.6875 C 11.90625 -6.738281 12.316406 -6.585938 12.671875 -6.234375 C 12.972656 -5.910156 13.125 -5.5625 13.125 -5.1875 C 13.125 -4.757812 12.945312 -4.332031 12.59375 -3.90625 C 12.25 -3.476562 11.925781 -3.101562 11.625 -2.78125 C 10.925781 -2.101562 10.128906 -1.476562 9.234375 -0.90625 C 8.347656 -0.34375 7.394531 -0.0625 6.375 -0.0625 Z M 4.21875 -11.78125 C 4.519531 -11.832031 4.910156 -11.898438 5.390625 -11.984375 C 5.867188 -12.066406 6.351562 -12.148438 6.84375 -12.234375 C 7.332031 -12.328125 7.753906 -12.410156 8.109375 -12.484375 C 8.472656 -12.566406 8.675781 -12.609375 8.71875 -12.609375 C 8.894531 -12.648438 9.046875 -12.671875 9.171875 -12.671875 C 9.304688 -12.671875 9.382812 -12.800781 9.40625 -13.0625 C 9.40625 -13.457031 9.410156 -13.691406 9.421875 -13.765625 C 9.429688 -13.835938 9.4375 -13.910156 9.4375 -13.984375 C 9.4375 -14.066406 9.414062 -14.289062 9.375 -14.65625 C 9.132812 -16.007812 8.707031 -16.726562 8.09375 -16.8125 C 7.488281 -16.90625 6.695312 -16.546875 5.71875 -15.734375 L 5.578125 -15.578125 C 5.210938 -15.015625 4.921875 -14.410156 4.703125 -13.765625 C 4.484375 -13.117188 4.320312 -12.457031 4.21875 -11.78125 Z M 4.21875 -11.78125 "/></g></g></g><g fill="#272727" fill-opacity="1"><g transform="translate(54.584769, 38.10971)"><g><path d="M 6.375 -0.0625 C 5.320312 -0.0625 4.445312 -0.359375 3.75 -0.953125 C 3.050781 -1.554688 2.488281 -2.332031 2.0625 -3.28125 C 1.644531 -4.226562 1.34375 -5.25 1.15625 -6.34375 C 0.96875 -7.445312 0.875 -8.5 0.875 -9.5 C 0.875 -10.175781 0.921875 -10.960938 1.015625 -11.859375 C 1.117188 -12.765625 1.320312 -13.707031 1.625 -14.6875 C 1.9375 -15.675781 2.394531 -16.582031 3 -17.40625 C 3.550781 -18.164062 4.222656 -18.804688 5.015625 -19.328125 C 5.804688 -19.847656 6.671875 -20.109375 7.609375 -20.109375 C 8.890625 -20.109375 9.925781 -19.707031 10.71875 -18.90625 C 11.519531 -18.101562 12.0625 -17.132812 12.34375 -16 C 12.445312 -15.632812 12.515625 -15.207031 12.546875 -14.71875 C 12.585938 -14.226562 12.609375 -13.765625 12.609375 -13.328125 C 12.609375 -12.890625 12.585938 -12.539062 12.546875 -12.28125 C 12.472656 -11.820312 12.378906 -11.351562 12.265625 -10.875 C 12.160156 -10.394531 11.859375 -10.066406 11.359375 -9.890625 C 10.816406 -9.671875 10.207031 -9.519531 9.53125 -9.4375 C 8.851562 -9.351562 8.210938 -9.253906 7.609375 -9.140625 C 6.972656 -9.035156 6.34375 -8.894531 5.71875 -8.71875 C 5.101562 -8.539062 4.566406 -8.519531 4.109375 -8.65625 C 4.128906 -8.320312 4.175781 -7.863281 4.25 -7.28125 C 4.332031 -6.695312 4.453125 -6.097656 4.609375 -5.484375 C 4.773438 -4.878906 5.015625 -4.363281 5.328125 -3.9375 C 5.648438 -3.507812 6.050781 -3.296875 6.53125 -3.296875 C 6.90625 -3.296875 7.3125 -3.441406 7.75 -3.734375 C 8.195312 -4.035156 8.640625 -4.394531 9.078125 -4.8125 C 9.515625 -5.238281 9.90625 -5.648438 10.25 -6.046875 C 10.582031 -6.429688 10.976562 -6.644531 11.4375 -6.6875 C 11.90625 -6.738281 12.316406 -6.585938 12.671875 -6.234375 C 12.972656 -5.910156 13.125 -5.5625 13.125 -5.1875 C 13.125 -4.757812 12.945312 -4.332031 12.59375 -3.90625 C 12.25 -3.476562 11.925781 -3.101562 11.625 -2.78125 C 10.925781 -2.101562 10.128906 -1.476562 9.234375 -0.90625 C 8.347656 -0.34375 7.394531 -0.0625 6.375 -0.0625 Z M 4.21875 -11.78125 C 4.519531 -11.832031 4.910156 -11.898438 5.390625 -11.984375 C 5.867188 -12.066406 6.351562 -12.148438 6.84375 -12.234375 C 7.332031 -12.328125 7.753906 -12.410156 8.109375 -12.484375 C 8.472656 -12.566406 8.675781 -12.609375 8.71875 -12.609375 C 8.894531 -12.648438 9.046875 -12.671875 9.171875 -12.671875 C 9.304688 -12.671875 9.382812 -12.800781 9.40625 -13.0625 C 9.40625 -13.457031 9.410156 -13.691406 9.421875 -13.765625 C 9.429688 -13.835938 9.4375 -13.910156 9.4375 -13.984375 C 9.4375 -14.066406 9.414062 -14.289062 9.375 -14.65625 C 9.132812 -16.007812 8.707031 -16.726562 8.09375 -16.8125 C 7.488281 -16.90625 6.695312 -16.546875 5.71875 -15.734375 L 5.578125 -15.578125 C 5.210938 -15.015625 4.921875 -14.410156 4.703125 -13.765625 C 4.484375 -13.117188 4.320312 -12.457031 4.21875 -11.78125 Z M 4.21875 -11.78125 "/></g></g></g><g fill="#272727" fill-opacity="1"><g transform="translate(68.591966, 38.10971)"><g><path d="M 7.703125 -0.203125 C 7.421875 -0.046875 7.078125 0.015625 6.671875 -0.015625 C 6.273438 -0.046875 5.957031 -0.203125 5.71875 -0.484375 C 5.476562 -0.773438 5.328125 -1.171875 5.265625 -1.671875 C 5.210938 -2.171875 5.195312 -2.6875 5.21875 -3.21875 C 5.238281 -3.75 5.238281 -4.164062 5.21875 -4.46875 C 5.195312 -4.90625 5.171875 -5.46875 5.140625 -6.15625 C 5.109375 -6.84375 5.078125 -7.566406 5.046875 -8.328125 C 5.015625 -9.085938 4.988281 -9.8125 4.96875 -10.5 C 4.945312 -11.1875 4.9375 -11.75 4.9375 -12.1875 C 4.675781 -12.15625 4.367188 -12.117188 4.015625 -12.078125 C 3.671875 -12.035156 3.3125 -12.015625 2.9375 -12.015625 C 2.394531 -12.015625 1.90625 -12.117188 1.46875 -12.328125 C 1.03125 -12.535156 0.8125 -12.941406 0.8125 -13.546875 C 0.8125 -14.003906 0.941406 -14.382812 1.203125 -14.6875 C 1.460938 -15 1.800781 -15.175781 2.21875 -15.21875 L 4.5 -15.40625 C 4.894531 -15.457031 5.085938 -15.640625 5.078125 -15.953125 C 5.066406 -16.265625 5.070312 -16.585938 5.09375 -16.921875 C 5.132812 -17.222656 5.175781 -17.640625 5.21875 -18.171875 C 5.269531 -18.703125 5.359375 -19.242188 5.484375 -19.796875 C 5.617188 -20.359375 5.816406 -20.828125 6.078125 -21.203125 C 6.335938 -21.585938 6.6875 -21.78125 7.125 -21.78125 C 7.53125 -21.78125 7.945312 -21.59375 8.375 -21.21875 C 8.800781 -20.851562 8.984375 -20.378906 8.921875 -19.796875 C 8.828125 -19.117188 8.691406 -18.445312 8.515625 -17.78125 C 8.347656 -17.113281 8.226562 -16.429688 8.15625 -15.734375 L 9.703125 -15.90625 C 10.222656 -15.945312 10.644531 -15.769531 10.96875 -15.375 C 11.300781 -14.988281 11.46875 -14.566406 11.46875 -14.109375 C 11.46875 -13.847656 11.394531 -13.59375 11.25 -13.34375 C 11.101562 -13.09375 10.878906 -12.898438 10.578125 -12.765625 C 10.296875 -12.660156 9.972656 -12.601562 9.609375 -12.59375 C 9.253906 -12.582031 8.914062 -12.566406 8.59375 -12.546875 C 8.375 -12.515625 8.226562 -12.46875 8.15625 -12.40625 C 8.09375 -12.34375 8.0625 -12.253906 8.0625 -12.140625 C 8.0625 -12.015625 8.066406 -11.90625 8.078125 -11.8125 C 8.085938 -11.726562 8.101562 -11.566406 8.125 -11.328125 C 8.144531 -11.085938 8.160156 -10.707031 8.171875 -10.1875 C 8.191406 -9.664062 8.203125 -8.90625 8.203125 -7.90625 C 8.203125 -7.332031 8.238281 -6.644531 8.3125 -5.84375 C 8.382812 -5.039062 8.453125 -4.285156 8.515625 -3.578125 C 8.585938 -2.867188 8.625 -2.351562 8.625 -2.03125 C 8.625 -1.65625 8.566406 -1.304688 8.453125 -0.984375 C 8.347656 -0.671875 8.097656 -0.410156 7.703125 -0.203125 Z M 7.703125 -0.203125 "/></g></g></g><g fill="#272727" fill-opacity="1"><g transform="translate(80.868674, 38.10971)"><g/></g></g><g fill="#272727" fill-opacity="1"><g transform="translate(89.031378, 38.10971)"><g><path d="M 12.046875 -0.65625 C 11.109375 -0.175781 10.0625 0.0351562 8.90625 -0.015625 C 7.757812 -0.0664062 6.6875 -0.398438 5.6875 -1.015625 C 4.613281 -1.691406 3.78125 -2.523438 3.1875 -3.515625 C 2.601562 -4.503906 2.195312 -5.550781 1.96875 -6.65625 C 1.738281 -7.769531 1.628906 -8.859375 1.640625 -9.921875 C 1.660156 -10.992188 1.710938 -11.941406 1.796875 -12.765625 C 1.898438 -13.835938 2.128906 -14.90625 2.484375 -15.96875 C 2.847656 -17.03125 3.332031 -18.007812 3.9375 -18.90625 C 4.550781 -19.800781 5.304688 -20.519531 6.203125 -21.0625 C 7.097656 -21.601562 8.144531 -21.875 9.34375 -21.875 C 9.707031 -21.875 10.164062 -21.804688 10.71875 -21.671875 C 11.28125 -21.546875 11.832031 -21.351562 12.375 -21.09375 C 12.914062 -20.832031 13.363281 -20.5 13.71875 -20.09375 C 14.082031 -19.695312 14.265625 -19.210938 14.265625 -18.640625 C 14.265625 -18.160156 14.097656 -17.738281 13.765625 -17.375 C 13.429688 -17.019531 13.007812 -16.84375 12.5 -16.84375 C 12.15625 -16.84375 11.878906 -16.921875 11.671875 -17.078125 C 11.460938 -17.234375 11.195312 -17.503906 10.875 -17.890625 C 10.71875 -18.066406 10.507812 -18.191406 10.25 -18.265625 C 9.988281 -18.347656 9.707031 -18.390625 9.40625 -18.390625 C 9.050781 -18.390625 8.695312 -18.335938 8.34375 -18.234375 C 7.988281 -18.140625 7.722656 -18.003906 7.546875 -17.828125 C 6.671875 -17.023438 6.023438 -15.988281 5.609375 -14.71875 C 5.203125 -13.457031 5 -12.15625 5 -10.8125 C 5 -9.71875 5.128906 -8.648438 5.390625 -7.609375 C 5.648438 -6.566406 6.03125 -5.660156 6.53125 -4.890625 C 6.8125 -4.484375 7.1875 -4.15625 7.65625 -3.90625 C 8.125 -3.65625 8.617188 -3.53125 9.140625 -3.53125 C 9.972656 -3.53125 10.691406 -3.832031 11.296875 -4.4375 C 11.492188 -4.632812 11.726562 -4.863281 12 -5.125 C 12.269531 -5.382812 12.601562 -5.515625 13 -5.515625 C 13.257812 -5.515625 13.53125 -5.441406 13.8125 -5.296875 C 14.425781 -4.960938 14.734375 -4.523438 14.734375 -3.984375 C 14.734375 -3.546875 14.570312 -3.097656 14.25 -2.640625 C 13.9375 -2.179688 13.570312 -1.769531 13.15625 -1.40625 C 12.75 -1.050781 12.378906 -0.800781 12.046875 -0.65625 Z M 12.046875 -0.65625 "/></g></g></g><g fill="#272727" fill-opacity="1"><g transform="translate(104.573161, 38.10971)"><g><path d="M 6.375 -0.0625 C 5.320312 -0.0625 4.445312 -0.359375 3.75 -0.953125 C 3.050781 -1.554688 2.488281 -2.332031 2.0625 -3.28125 C 1.644531 -4.226562 1.34375 -5.25 1.15625 -6.34375 C 0.96875 -7.445312 0.875 -8.5 0.875 -9.5 C 0.875 -10.175781 0.921875 -10.960938 1.015625 -11.859375 C 1.117188 -12.765625 1.320312 -13.707031 1.625 -14.6875 C 1.9375 -15.675781 2.394531 -16.582031 3 -17.40625 C 3.550781 -18.164062 4.222656 -18.804688 5.015625 -19.328125 C 5.804688 -19.847656 6.671875 -20.109375 7.609375 -20.109375 C 8.890625 -20.109375 9.925781 -19.707031 10.71875 -18.90625 C 11.519531 -18.101562 12.0625 -17.132812 12.34375 -16 C 12.445312 -15.632812 12.515625 -15.207031 12.546875 -14.71875 C 12.585938 -14.226562 12.609375 -13.765625 12.609375 -13.328125 C 12.609375 -12.890625 12.585938 -12.539062 12.546875 -12.28125 C 12.472656 -11.820312 12.378906 -11.351562 12.265625 -10.875 C 12.160156 -10.394531 11.859375 -10.066406 11.359375 -9.890625 C 10.816406 -9.671875 10.207031 -9.519531 9.53125 -9.4375 C 8.851562 -9.351562 8.210938 -9.253906 7.609375 -9.140625 C 6.972656 -9.035156 6.34375 -8.894531 5.71875 -8.71875 C 5.101562 -8.539062 4.566406 -8.519531 4.109375 -8.65625 C 4.128906 -8.320312 4.175781 -7.863281 4.25 -7.28125 C 4.332031 -6.695312 4.453125 -6.097656 4.609375 -5.484375 C 4.773438 -4.878906 5.015625 -4.363281 5.328125 -3.9375 C 5.648438 -3.507812 6.050781 -3.296875 6.53125 -3.296875 C 6.90625 -3.296875 7.3125 -3.441406 7.75 -3.734375 C 8.195312 -4.035156 8.640625 -4.394531 9.078125 -4.8125 C 9.515625 -5.238281 9.90625 -5.648438 10.25 -6.046875 C 10.582031 -6.429688 10.976562 -6.644531 11.4375 -6.6875 C 11.90625 -6.738281 12.316406 -6.585938 12.671875 -6.234375 C 12.972656 -5.910156 13.125 -5.5625 13.125 -5.1875 C 13.125 -4.757812 12.945312 -4.332031 12.59375 -3.90625 C 12.25 -3.476562 11.925781 -3.101562 11.625 -2.78125 C 10.925781 -2.101562 10.128906 -1.476562 9.234375 -0.90625 C 8.347656 -0.34375 7.394531 -0.0625 6.375 -0.0625 Z M 4.21875 -11.78125 C 4.519531 -11.832031 4.910156 -11.898438 5.390625 -11.984375 C 5.867188 -12.066406 6.351562 -12.148438 6.84375 -12.234375 C 7.332031 -12.328125 7.753906 -12.410156 8.109375 -12.484375 C 8.472656 -12.566406 8.675781 -12.609375 8.71875 -12.609375 C 8.894531 -12.648438 9.046875 -12.671875 9.171875 -12.671875 C 9.304688 -12.671875 9.382812 -12.800781 9.40625 -13.0625 C 9.40625 -13.457031 9.410156 -13.691406 9.421875 -13.765625 C 9.429688 -13.835938 9.4375 -13.910156 9.4375 -13.984375 C 9.4375 -14.066406 9.414062 -14.289062 9.375 -14.65625 C 9.132812 -16.007812 8.707031 -16.726562 8.09375 -16.8125 C 7.488281 -16.90625 6.695312 -16.546875 5.71875 -15.734375 L 5.578125 -15.578125 C 5.210938 -15.015625 4.921875 -14.410156 4.703125 -13.765625 C 4.484375 -13.117188 4.320312 -12.457031 4.21875 -11.78125 Z M 4.21875 -11.78125 "/></g></g></g><g fill="#272727" fill-opacity="1"><g transform="translate(118.580358, 38.10971)"><g><path d="M 6.46875 -0.0625 C 6.09375 -0.0625 5.726562 -0.113281 5.375 -0.21875 C 5.03125 -0.332031 4.738281 -0.445312 4.5 -0.5625 C 3.476562 -1.082031 2.785156 -1.804688 2.421875 -2.734375 C 2.066406 -3.671875 1.867188 -4.585938 1.828125 -5.484375 C 1.742188 -7.035156 1.6875 -8.585938 1.65625 -10.140625 C 1.632812 -11.691406 1.625 -13.242188 1.625 -14.796875 L 1.625 -20.40625 C 1.625 -20.863281 1.648438 -21.347656 1.703125 -21.859375 C 1.765625 -22.367188 1.894531 -22.804688 2.09375 -23.171875 C 2.289062 -23.546875 2.59375 -23.734375 3 -23.734375 C 3.757812 -23.734375 4.34375 -23.441406 4.75 -22.859375 C 5.15625 -22.273438 5.359375 -21.613281 5.359375 -20.875 C 5.359375 -20.34375 5.328125 -19.828125 5.265625 -19.328125 C 5.210938 -18.828125 5.1875 -18.40625 5.1875 -18.0625 C 5.1875 -17.1875 5.179688 -16.304688 5.171875 -15.421875 C 5.160156 -14.546875 5.15625 -13.660156 5.15625 -12.765625 C 5.15625 -11.085938 5.179688 -9.59375 5.234375 -8.28125 C 5.296875 -6.976562 5.363281 -5.960938 5.4375 -5.234375 C 5.507812 -4.503906 5.566406 -4.140625 5.609375 -4.140625 C 5.640625 -4.140625 5.671875 -4.097656 5.703125 -4.015625 C 5.734375 -3.929688 5.726562 -3.953125 5.6875 -4.078125 C 5.851562 -3.773438 6.070312 -3.582031 6.34375 -3.5 C 6.625 -3.425781 6.910156 -3.375 7.203125 -3.34375 C 7.492188 -3.3125 7.753906 -3.234375 7.984375 -3.109375 C 8.210938 -2.992188 8.347656 -2.726562 8.390625 -2.3125 C 8.429688 -2.03125 8.457031 -1.828125 8.46875 -1.703125 C 8.476562 -1.585938 8.484375 -1.488281 8.484375 -1.40625 C 8.484375 -0.925781 8.273438 -0.582031 7.859375 -0.375 C 7.453125 -0.164062 6.988281 -0.0625 6.46875 -0.0625 Z M 6.46875 -0.0625 "/></g></g></g><g fill="#272727" fill-opacity="1"><g transform="translate(127.88584, 38.10971)"><g><path d="M 6.375 -0.0625 C 5.320312 -0.0625 4.445312 -0.359375 3.75 -0.953125 C 3.050781 -1.554688 2.488281 -2.332031 2.0625 -3.28125 C 1.644531 -4.226562 1.34375 -5.25 1.15625 -6.34375 C 0.96875 -7.445312 0.875 -8.5 0.875 -9.5 C 0.875 -10.175781 0.921875 -10.960938 1.015625 -11.859375 C 1.117188 -12.765625 1.320312 -13.707031 1.625 -14.6875 C 1.9375 -15.675781 2.394531 -16.582031 3 -17.40625 C 3.550781 -18.164062 4.222656 -18.804688 5.015625 -19.328125 C 5.804688 -19.847656 6.671875 -20.109375 7.609375 -20.109375 C 8.890625 -20.109375 9.925781 -19.707031 10.71875 -18.90625 C 11.519531 -18.101562 12.0625 -17.132812 12.34375 -16 C 12.445312 -15.632812 12.515625 -15.207031 12.546875 -14.71875 C 12.585938 -14.226562 12.609375 -13.765625 12.609375 -13.328125 C 12.609375 -12.890625 12.585938 -12.539062 12.546875 -12.28125 C 12.472656 -11.820312 12.378906 -11.351562 12.265625 -10.875 C 12.160156 -10.394531 11.859375 -10.066406 11.359375 -9.890625 C 10.816406 -9.671875 10.207031 -9.519531 9.53125 -9.4375 C 8.851562 -9.351562 8.210938 -9.253906 7.609375 -9.140625 C 6.972656 -9.035156 6.34375 -8.894531 5.71875 -8.71875 C 5.101562 -8.539062 4.566406 -8.519531 4.109375 -8.65625 C 4.128906 -8.320312 4.175781 -7.863281 4.25 -7.28125 C 4.332031 -6.695312 4.453125 -6.097656 4.609375 -5.484375 C 4.773438 -4.878906 5.015625 -4.363281 5.328125 -3.9375 C 5.648438 -3.507812 6.050781 -3.296875 6.53125 -3.296875 C 6.90625 -3.296875 7.3125 -3.441406 7.75 -3.734375 C 8.195312 -4.035156 8.640625 -4.394531 9.078125 -4.8125 C 9.515625 -5.238281 9.90625 -5.648438 10.25 -6.046875 C 10.582031 -6.429688 10.976562 -6.644531 11.4375 -6.6875 C 11.90625 -6.738281 12.316406 -6.585938 12.671875 -6.234375 C 12.972656 -5.910156 13.125 -5.5625 13.125 -5.1875 C 13.125 -4.757812 12.945312 -4.332031 12.59375 -3.90625 C 12.25 -3.476562 11.925781 -3.101562 11.625 -2.78125 C 10.925781 -2.101562 10.128906 -1.476562 9.234375 -0.90625 C 8.347656 -0.34375 7.394531 -0.0625 6.375 -0.0625 Z M 4.21875 -11.78125 C 4.519531 -11.832031 4.910156 -11.898438 5.390625 -11.984375 C 5.867188 -12.066406 6.351562 -12.148438 6.84375 -12.234375 C 7.332031 -12.328125 7.753906 -12.410156 8.109375 -12.484375 C 8.472656 -12.566406 8.675781 -12.609375 8.71875 -12.609375 C 8.894531 -12.648438 9.046875 -12.671875 9.171875 -12.671875 C 9.304688 -12.671875 9.382812 -12.800781 9.40625 -13.0625 C 9.40625 -13.457031 9.410156 -13.691406 9.421875 -13.765625 C 9.429688 -13.835938 9.4375 -13.910156 9.4375 -13.984375 C 9.4375 -14.066406 9.414062 -14.289062 9.375 -14.65625 C 9.132812 -16.007812 8.707031 -16.726562 8.09375 -16.8125 C 7.488281 -16.90625 6.695312 -16.546875 5.71875 -15.734375 L 5.578125 -15.578125 C 5.210938 -15.015625 4.921875 -14.410156 4.703125 -13.765625 C 4.484375 -13.117188 4.320312 -12.457031 4.21875 -11.78125 Z M 4.21875 -11.78125 "/></g></g></g><g fill="#272727" fill-opacity="1"><g transform="translate(141.893038, 38.10971)"><g><path d="M 6.890625 0.09375 C 6.648438 0.09375 6.414062 0.0703125 6.1875 0.03125 C 5.957031 -0.0078125 5.734375 -0.0390625 5.515625 -0.0625 C 5.296875 -0.101562 5.085938 -0.140625 4.890625 -0.171875 C 4.703125 -0.210938 4.5 -0.234375 4.28125 -0.234375 C 3.707031 -0.234375 3.269531 -0.453125 2.96875 -0.890625 C 2.664062 -1.335938 2.441406 -1.890625 2.296875 -2.546875 C 2.160156 -3.203125 2.066406 -3.84375 2.015625 -4.46875 C 1.972656 -5.101562 1.929688 -5.59375 1.890625 -5.9375 C 1.785156 -6.875 1.695312 -7.789062 1.625 -8.6875 C 1.5625 -9.582031 1.53125 -10.460938 1.53125 -11.328125 C 1.53125 -14.816406 1.957031 -18.257812 2.8125 -21.65625 C 2.894531 -22.019531 2.988281 -22.445312 3.09375 -22.9375 C 3.207031 -23.425781 3.398438 -23.851562 3.671875 -24.21875 C 3.941406 -24.59375 4.363281 -24.78125 4.9375 -24.78125 C 5.257812 -24.78125 5.5625 -24.691406 5.84375 -24.515625 C 6.125 -24.347656 6.320312 -24.113281 6.4375 -23.8125 C 6.519531 -23.613281 6.5625 -23.375 6.5625 -23.09375 C 6.5625 -22.757812 6.507812 -22.414062 6.40625 -22.0625 C 6.3125 -21.71875 6.210938 -21.382812 6.109375 -21.0625 C 6.066406 -20.90625 6.019531 -20.75 5.96875 -20.59375 C 5.925781 -20.445312 5.882812 -20.3125 5.84375 -20.1875 C 5.71875 -19.613281 5.597656 -19.054688 5.484375 -18.515625 C 5.378906 -17.972656 5.289062 -17.453125 5.21875 -16.953125 C 6.113281 -17.054688 7.070312 -17.070312 8.09375 -17 C 9.125 -16.925781 10.140625 -16.710938 11.140625 -16.359375 C 12.140625 -16.015625 13.054688 -15.5 13.890625 -14.8125 C 14.734375 -14.125 15.414062 -13.222656 15.9375 -12.109375 C 16.175781 -11.566406 16.363281 -10.992188 16.5 -10.390625 C 16.644531 -9.796875 16.71875 -9.207031 16.71875 -8.625 C 16.71875 -7.96875 16.628906 -7.316406 16.453125 -6.671875 C 16.285156 -6.035156 16.015625 -5.421875 15.640625 -4.828125 C 15.054688 -3.960938 14.328125 -3.234375 13.453125 -2.640625 C 12.578125 -2.054688 11.6875 -1.546875 10.78125 -1.109375 C 10.164062 -0.828125 9.535156 -0.554688 8.890625 -0.296875 C 8.253906 -0.0351562 7.585938 0.09375 6.890625 0.09375 Z M 6.5625 -3.171875 C 6.582031 -3.171875 6.617188 -3.171875 6.671875 -3.171875 C 6.734375 -3.171875 6.785156 -3.179688 6.828125 -3.203125 L 6.921875 -3.203125 C 7.578125 -3.378906 8.273438 -3.613281 9.015625 -3.90625 C 9.753906 -4.195312 10.457031 -4.546875 11.125 -4.953125 C 11.800781 -5.367188 12.351562 -5.863281 12.78125 -6.4375 C 13.207031 -7.019531 13.429688 -7.691406 13.453125 -8.453125 C 13.492188 -9.671875 13.195312 -10.671875 12.5625 -11.453125 C 11.9375 -12.242188 11.117188 -12.832031 10.109375 -13.21875 C 9.097656 -13.613281 8.054688 -13.8125 6.984375 -13.8125 C 6.835938 -13.8125 6.679688 -13.804688 6.515625 -13.796875 C 6.347656 -13.785156 6.179688 -13.769531 6.015625 -13.75 L 5 -13.546875 C 4.976562 -13.523438 4.929688 -13.515625 4.859375 -13.515625 C 4.835938 -13.128906 4.820312 -12.738281 4.8125 -12.34375 C 4.800781 -11.945312 4.796875 -11.566406 4.796875 -11.203125 C 4.816406 -10.441406 4.847656 -9.671875 4.890625 -8.890625 C 4.941406 -8.117188 5.007812 -7.351562 5.09375 -6.59375 C 5.113281 -6.53125 5.125 -6.441406 5.125 -6.328125 C 5.125 -6.222656 5.125 -6.117188 5.125 -6.015625 C 5.164062 -5.679688 5.207031 -5.316406 5.25 -4.921875 C 5.300781 -4.535156 5.375 -4.195312 5.46875 -3.90625 C 5.5625 -3.613281 5.695312 -3.429688 5.875 -3.359375 L 6.140625 -3.265625 C 6.316406 -3.203125 6.457031 -3.171875 6.5625 -3.171875 Z M 6.5625 -3.171875 "/></g></g></g><g fill="#272727" fill-opacity="1"><g transform="translate(159.328569, 38.10971)"><g><path d="M 5.453125 -1.4375 C 5.453125 -0.957031 5.28125 -0.597656 4.9375 -0.359375 C 4.601562 -0.117188 4.21875 -0.00390625 3.78125 -0.015625 C 3.351562 -0.0234375 2.96875 -0.164062 2.625 -0.4375 C 2.289062 -0.707031 2.113281 -1.117188 2.09375 -1.671875 C 2.019531 -3.296875 1.957031 -4.925781 1.90625 -6.5625 C 1.851562 -8.195312 1.796875 -9.832031 1.734375 -11.46875 L 1.625 -14.625 C 1.601562 -15.0625 1.757812 -15.425781 2.09375 -15.71875 C 2.4375 -16.019531 2.816406 -16.171875 3.234375 -16.171875 C 3.867188 -16.171875 4.300781 -16.054688 4.53125 -15.828125 C 4.769531 -15.597656 4.910156 -15.285156 4.953125 -14.890625 C 5.003906 -14.492188 5.039062 -14.054688 5.0625 -13.578125 C 5.320312 -13.773438 5.675781 -13.992188 6.125 -14.234375 C 6.570312 -14.472656 7.046875 -14.679688 7.546875 -14.859375 C 8.046875 -15.035156 8.523438 -15.125 8.984375 -15.125 C 9.585938 -15.125 10.023438 -14.945312 10.296875 -14.59375 C 10.578125 -14.25 10.71875 -13.867188 10.71875 -13.453125 C 10.71875 -13.054688 10.566406 -12.757812 10.265625 -12.5625 C 9.972656 -12.375 9.628906 -12.222656 9.234375 -12.109375 C 8.847656 -12.003906 8.503906 -11.882812 8.203125 -11.75 C 7.628906 -11.5625 7.101562 -11.285156 6.625 -10.921875 C 6.144531 -10.566406 5.710938 -10.160156 5.328125 -9.703125 C 5.234375 -9.585938 5.164062 -9.425781 5.125 -9.21875 C 5.082031 -9.019531 5.0625 -8.800781 5.0625 -8.5625 C 5.0625 -8.101562 5.097656 -7.613281 5.171875 -7.09375 C 5.253906 -6.582031 5.304688 -6.1875 5.328125 -5.90625 C 5.347656 -5.164062 5.375 -4.421875 5.40625 -3.671875 C 5.4375 -2.921875 5.453125 -2.175781 5.453125 -1.4375 Z M 5.453125 -1.4375 "/></g></g></g><g fill="#272727" fill-opacity="1"><g transform="translate(170.854306, 38.10971)"><g><path d="M 5.1875 -0.0625 C 3.769531 -0.257812 2.6875 -0.816406 1.9375 -1.734375 C 1.1875 -2.648438 0.8125 -3.648438 0.8125 -4.734375 C 0.8125 -5.691406 1.0625 -6.628906 1.5625 -7.546875 C 2.0625 -8.460938 2.609375 -9.253906 3.203125 -9.921875 C 3.765625 -10.578125 4.378906 -11.148438 5.046875 -11.640625 C 5.710938 -12.128906 6.503906 -12.613281 7.421875 -13.09375 C 8.347656 -13.570312 9.476562 -14.117188 10.8125 -14.734375 C 10.59375 -15.492188 10.226562 -16.117188 9.71875 -16.609375 C 9.207031 -17.097656 8.648438 -17.414062 8.046875 -17.5625 C 7.453125 -17.71875 6.882812 -17.671875 6.34375 -17.421875 C 5.8125 -17.171875 5.40625 -16.675781 5.125 -15.9375 C 5.019531 -15.65625 4.816406 -15.429688 4.515625 -15.265625 C 4.222656 -15.097656 3.925781 -15.015625 3.625 -15.015625 C 3.226562 -15.015625 2.847656 -15.15625 2.484375 -15.4375 C 2.128906 -15.726562 1.953125 -16.113281 1.953125 -16.59375 C 1.953125 -17.03125 2.070312 -17.460938 2.3125 -17.890625 C 2.550781 -18.328125 2.835938 -18.734375 3.171875 -19.109375 C 3.515625 -19.492188 3.828125 -19.785156 4.109375 -19.984375 C 4.609375 -20.359375 5.125 -20.617188 5.65625 -20.765625 C 6.195312 -20.921875 6.738281 -21 7.28125 -21 C 8.300781 -21 9.28125 -20.75 10.21875 -20.25 C 11.15625 -19.75 11.972656 -19.078125 12.671875 -18.234375 C 13.367188 -17.398438 13.835938 -16.457031 14.078125 -15.40625 C 14.253906 -14.582031 14.351562 -13.882812 14.375 -13.3125 C 14.394531 -12.75 14.40625 -12.253906 14.40625 -11.828125 C 14.40625 -10.429688 14.3125 -9.023438 14.125 -7.609375 C 13.9375 -6.191406 13.789062 -4.773438 13.6875 -3.359375 C 13.664062 -2.921875 13.609375 -2.503906 13.515625 -2.109375 C 13.429688 -1.722656 13.171875 -1.410156 12.734375 -1.171875 C 12.453125 -1.046875 12.234375 -0.992188 12.078125 -1.015625 C 11.929688 -1.035156 11.550781 -1.085938 10.9375 -1.171875 C 10.894531 -1.148438 10.835938 -1.125 10.765625 -1.09375 C 10.703125 -1.0625 10.640625 -1.023438 10.578125 -0.984375 C 9.578125 -0.566406 8.640625 -0.285156 7.765625 -0.140625 C 6.898438 -0.00390625 6.039062 0.0195312 5.1875 -0.0625 Z M 6.234375 -3.328125 C 6.753906 -3.328125 7.269531 -3.394531 7.78125 -3.53125 C 8.300781 -3.675781 8.800781 -3.847656 9.28125 -4.046875 C 9.757812 -4.140625 10.03125 -4.195312 10.09375 -4.21875 C 10.15625 -4.238281 10.273438 -4.226562 10.453125 -4.1875 C 10.535156 -5.351562 10.648438 -6.519531 10.796875 -7.6875 C 10.953125 -8.851562 11.046875 -10.023438 11.078125 -11.203125 C 10.265625 -10.804688 9.441406 -10.382812 8.609375 -9.9375 C 7.785156 -9.5 7.03125 -8.972656 6.34375 -8.359375 C 5.664062 -7.753906 5.097656 -7.023438 4.640625 -6.171875 C 4.484375 -5.890625 4.359375 -5.59375 4.265625 -5.28125 C 4.179688 -4.976562 4.15625 -4.664062 4.1875 -4.34375 C 4.3125 -3.925781 4.53125 -3.664062 4.84375 -3.5625 C 5.164062 -3.46875 5.628906 -3.390625 6.234375 -3.328125 Z M 6.234375 -3.328125 "/></g></g></g><g fill="#272727" fill-opacity="1"><g transform="translate(186.069582, 38.10971)"><g><path d="M 7.703125 -0.203125 C 7.421875 -0.046875 7.078125 0.015625 6.671875 -0.015625 C 6.273438 -0.046875 5.957031 -0.203125 5.71875 -0.484375 C 5.476562 -0.773438 5.328125 -1.171875 5.265625 -1.671875 C 5.210938 -2.171875 5.195312 -2.6875 5.21875 -3.21875 C 5.238281 -3.75 5.238281 -4.164062 5.21875 -4.46875 C 5.195312 -4.90625 5.171875 -5.46875 5.140625 -6.15625 C 5.109375 -6.84375 5.078125 -7.566406 5.046875 -8.328125 C 5.015625 -9.085938 4.988281 -9.8125 4.96875 -10.5 C 4.945312 -11.1875 4.9375 -11.75 4.9375 -12.1875 C 4.675781 -12.15625 4.367188 -12.117188 4.015625 -12.078125 C 3.671875 -12.035156 3.3125 -12.015625 2.9375 -12.015625 C 2.394531 -12.015625 1.90625 -12.117188 1.46875 -12.328125 C 1.03125 -12.535156 0.8125 -12.941406 0.8125 -13.546875 C 0.8125 -14.003906 0.941406 -14.382812 1.203125 -14.6875 C 1.460938 -15 1.800781 -15.175781 2.21875 -15.21875 L 4.5 -15.40625 C 4.894531 -15.457031 5.085938 -15.640625 5.078125 -15.953125 C 5.066406 -16.265625 5.070312 -16.585938 5.09375 -16.921875 C 5.132812 -17.222656 5.175781 -17.640625 5.21875 -18.171875 C 5.269531 -18.703125 5.359375 -19.242188 5.484375 -19.796875 C 5.617188 -20.359375 5.816406 -20.828125 6.078125 -21.203125 C 6.335938 -21.585938 6.6875 -21.78125 7.125 -21.78125 C 7.53125 -21.78125 7.945312 -21.59375 8.375 -21.21875 C 8.800781 -20.851562 8.984375 -20.378906 8.921875 -19.796875 C 8.828125 -19.117188 8.691406 -18.445312 8.515625 -17.78125 C 8.347656 -17.113281 8.226562 -16.429688 8.15625 -15.734375 L 9.703125 -15.90625 C 10.222656 -15.945312 10.644531 -15.769531 10.96875 -15.375 C 11.300781 -14.988281 11.46875 -14.566406 11.46875 -14.109375 C 11.46875 -13.847656 11.394531 -13.59375 11.25 -13.34375 C 11.101562 -13.09375 10.878906 -12.898438 10.578125 -12.765625 C 10.296875 -12.660156 9.972656 -12.601562 9.609375 -12.59375 C 9.253906 -12.582031 8.914062 -12.566406 8.59375 -12.546875 C 8.375 -12.515625 8.226562 -12.46875 8.15625 -12.40625 C 8.09375 -12.34375 8.0625 -12.253906 8.0625 -12.140625 C 8.0625 -12.015625 8.066406 -11.90625 8.078125 -11.8125 C 8.085938 -11.726562 8.101562 -11.566406 8.125 -11.328125 C 8.144531 -11.085938 8.160156 -10.707031 8.171875 -10.1875 C 8.191406 -9.664062 8.203125 -8.90625 8.203125 -7.90625 C 8.203125 -7.332031 8.238281 -6.644531 8.3125 -5.84375 C 8.382812 -5.039062 8.453125 -4.285156 8.515625 -3.578125 C 8.585938 -2.867188 8.625 -2.351562 8.625 -2.03125 C 8.625 -1.65625 8.566406 -1.304688 8.453125 -0.984375 C 8.347656 -0.671875 8.097656 -0.410156 7.703125 -0.203125 Z M 7.703125 -0.203125 "/></g></g></g><g fill="#272727" fill-opacity="1"><g transform="translate(198.346301, 38.10971)"><g><path d="M 3.984375 -18.09375 C 3.722656 -18.09375 3.460938 -18.15625 3.203125 -18.28125 C 2.921875 -18.457031 2.71875 -18.660156 2.59375 -18.890625 C 2.476562 -19.117188 2.421875 -19.351562 2.421875 -19.59375 C 2.421875 -20.03125 2.578125 -20.425781 2.890625 -20.78125 C 3.203125 -21.144531 3.578125 -21.328125 4.015625 -21.328125 C 4.273438 -21.328125 4.535156 -21.257812 4.796875 -21.125 C 5.078125 -20.976562 5.273438 -20.785156 5.390625 -20.546875 C 5.515625 -20.304688 5.578125 -20.066406 5.578125 -19.828125 C 5.578125 -19.390625 5.421875 -18.988281 5.109375 -18.625 C 4.796875 -18.269531 4.421875 -18.09375 3.984375 -18.09375 Z M 3.234375 0 C 2.796875 0 2.425781 -0.148438 2.125 -0.453125 C 1.925781 -0.648438 1.789062 -0.898438 1.71875 -1.203125 C 1.65625 -1.515625 1.625 -1.832031 1.625 -2.15625 C 1.625 -2.476562 1.640625 -2.796875 1.671875 -3.109375 C 1.710938 -3.429688 1.734375 -3.703125 1.734375 -3.921875 C 1.734375 -5.441406 1.738281 -7.09375 1.75 -8.875 C 1.757812 -10.664062 1.773438 -12.320312 1.796875 -13.84375 C 1.816406 -14.320312 2 -14.707031 2.34375 -15 C 2.695312 -15.300781 3.09375 -15.453125 3.53125 -15.453125 C 3.96875 -15.453125 4.335938 -15.296875 4.640625 -14.984375 C 4.835938 -14.785156 4.96875 -14.535156 5.03125 -14.234375 C 5.09375 -13.929688 5.125 -13.617188 5.125 -13.296875 C 5.125 -12.960938 5.109375 -12.644531 5.078125 -12.34375 C 5.046875 -12.039062 5.03125 -11.769531 5.03125 -11.53125 C 5.007812 -10 5.003906 -8.34375 5.015625 -6.5625 C 5.023438 -4.78125 5.007812 -3.125 4.96875 -1.59375 C 4.945312 -1.113281 4.757812 -0.726562 4.40625 -0.4375 C 4.0625 -0.144531 3.671875 0 3.234375 0 Z M 3.234375 0 "/></g></g></g><g fill="#272727" fill-opacity="1"><g transform="translate(204.745848, 38.10971)"><g><path d="M 6.890625 0 C 5.953125 0 5.050781 -0.1875 4.1875 -0.5625 C 3.332031 -0.945312 2.582031 -1.492188 1.9375 -2.203125 C 1.300781 -2.910156 0.851562 -3.753906 0.59375 -4.734375 C 0.414062 -5.429688 0.328125 -6.140625 0.328125 -6.859375 C 0.328125 -7.941406 0.5 -9.03125 0.84375 -10.125 C 1.195312 -11.226562 1.707031 -12.222656 2.375 -13.109375 C 3.050781 -13.992188 3.867188 -14.664062 4.828125 -15.125 C 5.304688 -15.363281 5.789062 -15.53125 6.28125 -15.625 C 6.769531 -15.71875 7.265625 -15.765625 7.765625 -15.765625 C 8.335938 -15.765625 8.898438 -15.703125 9.453125 -15.578125 C 10.003906 -15.460938 10.546875 -15.300781 11.078125 -15.09375 C 11.503906 -14.914062 11.90625 -14.695312 12.28125 -14.4375 C 12.664062 -14.175781 13.003906 -13.859375 13.296875 -13.484375 C 13.421875 -13.335938 13.554688 -13.085938 13.703125 -12.734375 C 13.859375 -12.390625 13.992188 -12.054688 14.109375 -11.734375 C 14.234375 -11.421875 14.296875 -11.234375 14.296875 -11.171875 C 14.472656 -10.429688 14.5625 -9.722656 14.5625 -9.046875 C 14.5625 -7.929688 14.367188 -6.816406 13.984375 -5.703125 C 13.609375 -4.597656 13.066406 -3.597656 12.359375 -2.703125 C 11.648438 -1.816406 10.785156 -1.132812 9.765625 -0.65625 C 9.304688 -0.4375 8.835938 -0.269531 8.359375 -0.15625 C 7.878906 -0.0507812 7.390625 0 6.890625 0 Z M 7.34375 -3.328125 C 8.101562 -3.484375 8.75 -3.816406 9.28125 -4.328125 C 9.820312 -4.835938 10.25 -5.445312 10.5625 -6.15625 C 10.875 -6.863281 11.085938 -7.566406 11.203125 -8.265625 C 11.242188 -8.546875 11.273438 -8.882812 11.296875 -9.28125 C 11.316406 -9.6875 11.265625 -9.9375 11.140625 -10.03125 C 10.984375 -10.175781 10.851562 -10.351562 10.75 -10.5625 C 10.65625 -10.769531 10.617188 -10.984375 10.640625 -11.203125 C 10.691406 -11.484375 10.554688 -11.703125 10.234375 -11.859375 C 9.921875 -12.023438 9.570312 -12.148438 9.1875 -12.234375 C 8.8125 -12.328125 8.523438 -12.382812 8.328125 -12.40625 C 8.242188 -12.40625 8.164062 -12.410156 8.09375 -12.421875 C 8.03125 -12.429688 7.957031 -12.4375 7.875 -12.4375 C 7.113281 -12.4375 6.460938 -12.242188 5.921875 -11.859375 C 5.390625 -11.484375 4.953125 -10.988281 4.609375 -10.375 C 4.273438 -9.769531 4.023438 -9.109375 3.859375 -8.390625 C 3.804688 -8.171875 3.765625 -7.945312 3.734375 -7.71875 C 3.703125 -7.488281 3.6875 -7.253906 3.6875 -7.015625 C 3.6875 -6.316406 3.816406 -5.675781 4.078125 -5.09375 C 4.335938 -4.507812 4.738281 -4.050781 5.28125 -3.71875 C 5.832031 -3.394531 6.519531 -3.265625 7.34375 -3.328125 Z M 7.34375 -3.328125 "/></g></g></g><g fill="#272727" fill-opacity="1"><g transform="translate(220.124383, 38.10971)"><g><path d="M 4.734375 0.390625 C 4.171875 0.390625 3.773438 0.195312 3.546875 -0.1875 C 3.316406 -0.582031 3.175781 -1.03125 3.125 -1.53125 C 3.082031 -2.03125 3.039062 -2.457031 3 -2.8125 C 2.894531 -3.988281 2.78125 -5.066406 2.65625 -6.046875 C 2.539062 -7.023438 2.414062 -8.007812 2.28125 -9 C 2.15625 -9.988281 2.015625 -11.0625 1.859375 -12.21875 C 1.835938 -12.519531 1.773438 -12.878906 1.671875 -13.296875 C 1.578125 -13.722656 1.53125 -14.144531 1.53125 -14.5625 C 1.53125 -15.820312 2.117188 -16.453125 3.296875 -16.453125 C 3.753906 -16.453125 4.09375 -16.296875 4.3125 -15.984375 C 4.53125 -15.671875 4.679688 -15.296875 4.765625 -14.859375 C 4.847656 -14.421875 4.914062 -14.019531 4.96875 -13.65625 C 5.8125 -14.257812 6.703125 -14.773438 7.640625 -15.203125 C 8.578125 -15.628906 9.554688 -15.84375 10.578125 -15.84375 C 11.359375 -15.84375 12.140625 -15.691406 12.921875 -15.390625 C 13.710938 -15.097656 14.398438 -14.65625 14.984375 -14.0625 C 15.578125 -13.476562 15.972656 -12.734375 16.171875 -11.828125 C 16.273438 -11.410156 16.335938 -10.988281 16.359375 -10.5625 C 16.378906 -10.132812 16.390625 -9.707031 16.390625 -9.28125 C 16.410156 -7.625 16.425781 -6.332031 16.4375 -5.40625 C 16.445312 -4.476562 16.453125 -3.78125 16.453125 -3.3125 C 16.453125 -2.84375 16.4375 -2.492188 16.40625 -2.265625 C 16.375 -2.035156 16.328125 -1.789062 16.265625 -1.53125 C 16.171875 -1.1875 15.976562 -0.898438 15.6875 -0.671875 C 15.394531 -0.441406 15.050781 -0.328125 14.65625 -0.328125 C 13.988281 -0.328125 13.5 -0.628906 13.1875 -1.234375 C 13.0625 -1.472656 13 -1.820312 13 -2.28125 C 13 -2.894531 13.003906 -3.398438 13.015625 -3.796875 C 13.023438 -4.203125 13.035156 -4.613281 13.046875 -5.03125 C 13.054688 -5.445312 13.0625 -5.945312 13.0625 -6.53125 C 13.0625 -6.945312 13.078125 -7.367188 13.109375 -7.796875 C 13.140625 -8.234375 13.15625 -8.679688 13.15625 -9.140625 C 13.15625 -9.859375 13.078125 -10.457031 12.921875 -10.9375 C 12.773438 -11.414062 12.582031 -11.785156 12.34375 -12.046875 C 12.101562 -12.160156 11.75 -12.300781 11.28125 -12.46875 C 10.8125 -12.644531 10.457031 -12.679688 10.21875 -12.578125 C 9.757812 -12.460938 9.253906 -12.285156 8.703125 -12.046875 C 8.148438 -11.804688 7.625 -11.535156 7.125 -11.234375 C 6.625 -10.929688 6.21875 -10.625 5.90625 -10.3125 C 5.601562 -10.007812 5.460938 -9.726562 5.484375 -9.46875 C 5.722656 -7.1875 5.929688 -5.421875 6.109375 -4.171875 C 6.285156 -2.929688 6.375 -2.0625 6.375 -1.5625 C 6.375 -0.257812 5.828125 0.390625 4.734375 0.390625 Z M 4.734375 0.390625 "/></g></g></g><g fill="#272727" fill-opacity="1"><g transform="translate(237.298697, 38.10971)"><g><path d="M 4.796875 -0.09375 C 4.429688 -0.1875 4 -0.382812 3.5 -0.6875 C 3 -0.988281 2.5625 -1.359375 2.1875 -1.796875 C 1.8125 -2.234375 1.625 -2.679688 1.625 -3.140625 C 1.625 -3.503906 1.800781 -3.863281 2.15625 -4.21875 C 2.476562 -4.539062 2.804688 -4.703125 3.140625 -4.703125 C 3.546875 -4.703125 3.890625 -4.554688 4.171875 -4.265625 C 4.460938 -3.972656 4.753906 -3.675781 5.046875 -3.375 C 5.335938 -3.082031 5.691406 -2.9375 6.109375 -2.9375 C 6.585938 -2.9375 7.101562 -3.082031 7.65625 -3.375 C 8.207031 -3.675781 8.710938 -4.023438 9.171875 -4.421875 C 9.628906 -4.828125 9.9375 -5.171875 10.09375 -5.453125 C 10.113281 -5.734375 10.019531 -5.957031 9.8125 -6.125 C 9.601562 -6.289062 9.359375 -6.414062 9.078125 -6.5 C 8.796875 -6.582031 8.546875 -6.660156 8.328125 -6.734375 C 7.566406 -6.972656 6.820312 -7.265625 6.09375 -7.609375 C 5.363281 -7.953125 4.769531 -8.472656 4.3125 -9.171875 C 3.832031 -9.910156 3.59375 -10.675781 3.59375 -11.46875 C 3.59375 -12.3125 3.832031 -13.101562 4.3125 -13.84375 C 4.789062 -14.582031 5.414062 -15.207031 6.1875 -15.71875 C 6.957031 -16.226562 7.757812 -16.5625 8.59375 -16.71875 C 8.832031 -16.757812 9.097656 -16.800781 9.390625 -16.84375 C 9.679688 -16.894531 9.96875 -16.921875 10.25 -16.921875 C 10.820312 -16.921875 11.328125 -16.804688 11.765625 -16.578125 C 12.210938 -16.347656 12.4375 -15.882812 12.4375 -15.1875 C 12.4375 -14.769531 12.328125 -14.46875 12.109375 -14.28125 C 11.890625 -14.101562 11.625 -13.988281 11.3125 -13.9375 C 11 -13.894531 10.675781 -13.875 10.34375 -13.875 C 10.019531 -13.875 9.75 -13.84375 9.53125 -13.78125 C 9.1875 -13.695312 8.757812 -13.582031 8.25 -13.4375 C 7.738281 -13.289062 7.40625 -13.066406 7.25 -12.765625 C 7.09375 -12.503906 6.945312 -12.1875 6.8125 -11.8125 C 6.6875 -11.445312 6.671875 -11.210938 6.765625 -11.109375 C 7.046875 -10.691406 7.375 -10.390625 7.75 -10.203125 C 8.132812 -10.015625 8.554688 -9.859375 9.015625 -9.734375 C 9.472656 -9.617188 9.941406 -9.453125 10.421875 -9.234375 C 11.328125 -8.867188 12.015625 -8.363281 12.484375 -7.71875 C 12.953125 -7.082031 13.1875 -6.359375 13.1875 -5.546875 C 13.1875 -4.566406 12.878906 -3.707031 12.265625 -2.96875 C 11.660156 -2.226562 10.898438 -1.625 9.984375 -1.15625 C 9.078125 -0.6875 8.148438 -0.359375 7.203125 -0.171875 C 6.253906 0.00390625 5.453125 0.03125 4.796875 -0.09375 Z M 4.796875 -0.09375 "/></g></g></g></g></g><g fill="#000000" fill-opacity="1"><g transform="translate(133.215223, 293.020762)"><g><path d="M 1.03125 0 L 1.03125 -7.8125 L 3.671875 -7.8125 C 4.222656 -7.8125 4.71875 -7.71875 5.15625 -7.53125 C 5.59375 -7.34375 5.9375 -7.0625 6.1875 -6.6875 C 6.4375 -6.320312 6.5625 -5.875 6.5625 -5.34375 C 6.5625 -4.820312 6.445312 -4.375 6.21875 -4 C 5.988281 -3.632812 5.664062 -3.359375 5.25 -3.171875 C 4.832031 -2.984375 4.351562 -2.890625 3.8125 -2.890625 L 2.0625 -2.890625 L 2.0625 0 Z M 2.046875 -3.734375 L 3.78125 -3.734375 C 4.320312 -3.734375 4.757812 -3.878906 5.09375 -4.171875 C 5.425781 -4.472656 5.59375 -4.882812 5.59375 -5.40625 C 5.59375 -5.914062 5.421875 -6.300781 5.078125 -6.5625 C 4.734375 -6.832031 4.285156 -6.96875 3.734375 -6.96875 L 2.046875 -6.96875 Z M 2.046875 -3.734375 "/></g></g></g><g fill="#000000" fill-opacity="1"><g transform="translate(141.772726, 293.020762)"><g><path d="M 0.453125 0 L 3.265625 -7.8125 L 4.40625 -7.8125 L 7.21875 0 L 6.203125 0 L 5.4375 -2.140625 L 2.25 -2.140625 L 1.46875 0 Z M 2.5 -3.0625 L 5.171875 -3.0625 L 3.84375 -6.8125 Z M 2.5 -3.0625 "/></g></g></g><g fill="#000000" fill-opacity="1"><g transform="translate(151.122662, 293.020762)"><g><path d="M 6.609375 0 L 5.5625 0 L 4.125 -3.359375 L 2.03125 -3.359375 L 2.03125 0 L 1.03125 0 L 1.03125 -7.8125 L 4.046875 -7.8125 C 4.609375 -7.8125 5.078125 -7.722656 5.453125 -7.546875 C 5.835938 -7.378906 6.125 -7.132812 6.3125 -6.8125 C 6.5 -6.5 6.59375 -6.117188 6.59375 -5.671875 C 6.59375 -5.242188 6.515625 -4.890625 6.359375 -4.609375 C 6.210938 -4.328125 6.023438 -4.101562 5.796875 -3.9375 C 5.566406 -3.769531 5.328125 -3.640625 5.078125 -3.546875 Z M 3.734375 -4.1875 C 4.316406 -4.1875 4.769531 -4.304688 5.09375 -4.546875 C 5.414062 -4.785156 5.578125 -5.140625 5.578125 -5.609375 C 5.578125 -6.078125 5.429688 -6.421875 5.140625 -6.640625 C 4.859375 -6.867188 4.46875 -6.984375 3.96875 -6.984375 L 2.03125 -6.984375 L 2.03125 -4.1875 Z M 3.734375 -4.1875 "/></g></g></g><g fill="#000000" fill-opacity="1"><g transform="translate(160.111412, 293.020762)"><g><path d="M 0.25 -6.890625 L 0.25 -7.8125 L 6.15625 -7.8125 L 6.15625 -6.890625 L 3.78125 -6.890625 L 3.78125 0 L 2.765625 0 L 2.765625 -6.890625 Z M 0.25 -6.890625 "/></g></g></g><g fill="#000000" fill-opacity="1"><g transform="translate(168.205314, 293.020762)"><g><path d="M 6.421875 -7.8125 L 3.78125 -3.3125 L 3.78125 0 L 2.796875 0 L 2.796875 -3.328125 L 0.125 -7.8125 L 1.21875 -7.8125 L 3.296875 -4.21875 L 5.328125 -7.8125 Z M 6.421875 -7.8125 "/></g></g></g><g fill="#000000" fill-opacity="1"><g transform="translate(176.444762, 293.020762)"><g/></g></g><g fill="#000000" fill-opacity="1"><g transform="translate(180.625014, 293.020762)"><g><path d="M 1.03125 0 L 1.03125 -7.8125 L 3.671875 -7.8125 C 4.222656 -7.8125 4.71875 -7.71875 5.15625 -7.53125 C 5.59375 -7.34375 5.9375 -7.0625 6.1875 -6.6875 C 6.4375 -6.320312 6.5625 -5.875 6.5625 -5.34375 C 6.5625 -4.820312 6.445312 -4.375 6.21875 -4 C 5.988281 -3.632812 5.664062 -3.359375 5.25 -3.171875 C 4.832031 -2.984375 4.351562 -2.890625 3.8125 -2.890625 L 2.0625 -2.890625 L 2.0625 0 Z M 2.046875 -3.734375 L 3.78125 -3.734375 C 4.320312 -3.734375 4.757812 -3.878906 5.09375 -4.171875 C 5.425781 -4.472656 5.59375 -4.882812 5.59375 -5.40625 C 5.59375 -5.914062 5.421875 -6.300781 5.078125 -6.5625 C 4.734375 -6.832031 4.285156 -6.96875 3.734375 -6.96875 L 2.046875 -6.96875 Z M 2.046875 -3.734375 "/></g></g></g><g fill="#000000" fill-opacity="1"><g transform="translate(189.182516, 293.020762)"><g><path d="M 1.03125 -7.8125 L 2.0625 -7.8125 L 2.0625 -0.890625 L 5.75 -0.890625 L 5.75 0 L 1.03125 0 Z M 1.03125 -7.8125 "/></g></g></g><g fill="#000000" fill-opacity="1"><g transform="translate(197.10391, 293.020762)"><g><path d="M 0.453125 0 L 3.265625 -7.8125 L 4.40625 -7.8125 L 7.21875 0 L 6.203125 0 L 5.4375 -2.140625 L 2.25 -2.140625 L 1.46875 0 Z M 2.5 -3.0625 L 5.171875 -3.0625 L 3.84375 -6.8125 Z M 2.5 -3.0625 "/></g></g></g><g fill="#000000" fill-opacity="1"><g transform="translate(206.453847, 293.020762)"><g><path d="M 6.109375 -7.8125 L 7.109375 -7.8125 L 7.109375 0 L 6.21875 0 L 2.03125 -6.15625 L 2.03125 0 L 1.03125 0 L 1.03125 -7.8125 L 1.984375 -7.8125 L 6.109375 -1.734375 Z M 6.109375 -7.8125 "/></g></g></g><g fill="#000000" fill-opacity="1"><g transform="translate(216.278164, 293.020762)"><g><path d="M 6.109375 -7.8125 L 7.109375 -7.8125 L 7.109375 0 L 6.21875 0 L 2.03125 -6.15625 L 2.03125 0 L 1.03125 0 L 1.03125 -7.8125 L 1.984375 -7.8125 L 6.109375 -1.734375 Z M 6.109375 -7.8125 "/></g></g></g><g fill="#000000" fill-opacity="1"><g transform="translate(226.102482, 293.020762)"><g><path d="M 1.03125 0 L 1.03125 -7.8125 L 5.953125 -7.8125 L 5.953125 -6.921875 L 2.03125 -6.921875 L 2.03125 -4.375 L 5.5625 -4.375 L 5.5625 -3.5 L 2.03125 -3.5 L 2.03125 -0.90625 L 6.0625 -0.890625 L 6.0625 0 Z M 1.03125 0 "/></g></g></g><g fill="#000000" fill-opacity="1"><g transform="translate(234.487476, 293.020762)"><g><path d="M 6.609375 0 L 5.5625 0 L 4.125 -3.359375 L 2.03125 -3.359375 L 2.03125 0 L 1.03125 0 L 1.03125 -7.8125 L 4.046875 -7.8125 C 4.609375 -7.8125 5.078125 -7.722656 5.453125 -7.546875 C 5.835938 -7.378906 6.125 -7.132812 6.3125 -6.8125 C 6.5 -6.5 6.59375 -6.117188 6.59375 -5.671875 C 6.59375 -5.242188 6.515625 -4.890625 6.359375 -4.609375 C 6.210938 -4.328125 6.023438 -4.101562 5.796875 -3.9375 C 5.566406 -3.769531 5.328125 -3.640625 5.078125 -3.546875 Z M 3.734375 -4.1875 C 4.316406 -4.1875 4.769531 -4.304688 5.09375 -4.546875 C 5.414062 -4.785156 5.578125 -5.140625 5.578125 -5.609375 C 5.578125 -6.078125 5.429688 -6.421875 5.140625 -6.640625 C 4.859375 -6.867188 4.46875 -6.984375 3.96875 -6.984375 L 2.03125 -6.984375 L 2.03125 -4.1875 Z M 3.734375 -4.1875 "/></g></g></g></svg>