<svg xmlns="http://www.w3.org/2000/svg" xmlns:xlink="http://www.w3.org/1999/xlink" width="500" zoomAndPan="magnify" viewBox="0 0 375 374.999991" height="500" preserveAspectRatio="xMidYMid meet" version="1.0"><defs><clipPath id="82efdf6105"><path d="M 172.621094 175.480469 L 260.277344 175.480469 L 260.277344 263.140625 L 172.621094 263.140625 Z M 172.621094 175.480469 " clip-rule="nonzero"/></clipPath><clipPath id="073a789632"><path d="M 216.449219 175.480469 C 192.242188 175.480469 172.621094 195.105469 172.621094 219.3125 C 172.621094 243.515625 192.242188 263.140625 216.449219 263.140625 C 240.65625 263.140625 260.277344 243.515625 260.277344 219.3125 C 260.277344 195.105469 240.65625 175.480469 216.449219 175.480469 Z M 216.449219 175.480469 " clip-rule="nonzero"/></clipPath><clipPath id="ccb011c4ad"><path d="M 0.621094 0.480469 L 88.277344 0.480469 L 88.277344 88.140625 L 0.621094 88.140625 Z M 0.621094 0.480469 " clip-rule="nonzero"/></clipPath><clipPath id="cf6fb2d2ea"><path d="M 44.449219 0.480469 C 20.242188 0.480469 0.621094 20.105469 0.621094 44.3125 C 0.621094 68.515625 20.242188 88.140625 44.449219 88.140625 C 68.65625 88.140625 88.277344 68.515625 88.277344 44.3125 C 88.277344 20.105469 68.65625 0.480469 44.449219 0.480469 Z M 44.449219 0.480469 " clip-rule="nonzero"/></clipPath><clipPath id="56d66eaa53"><rect x="0" width="89" y="0" height="89"/></clipPath><clipPath id="7a012fa703"><path d="M 113.605469 165.933594 L 202.007812 165.933594 L 202.007812 254.339844 L 113.605469 254.339844 Z M 113.605469 165.933594 " clip-rule="nonzero"/></clipPath><clipPath id="2cebd3699f"><path d="M 157.808594 165.933594 C 133.394531 165.933594 113.605469 185.726562 113.605469 210.136719 C 113.605469 234.546875 133.394531 254.339844 157.808594 254.339844 C 182.21875 254.339844 202.007812 234.546875 202.007812 210.136719 C 202.007812 185.726562 182.21875 165.933594 157.808594 165.933594 Z M 157.808594 165.933594 " clip-rule="nonzero"/></clipPath><clipPath id="db6e42b1fb"><path d="M 0.605469 0.933594 L 89.007812 0.933594 L 89.007812 89.339844 L 0.605469 89.339844 Z M 0.605469 0.933594 " clip-rule="nonzero"/></clipPath><clipPath id="a7f8f4fa9d"><path d="M 44.808594 0.933594 C 20.394531 0.933594 0.605469 20.726562 0.605469 45.136719 C 0.605469 69.546875 20.394531 89.339844 44.808594 89.339844 C 69.21875 89.339844 89.007812 69.546875 89.007812 45.136719 C 89.007812 20.726562 69.21875 0.933594 44.808594 0.933594 Z M 44.808594 0.933594 " clip-rule="nonzero"/></clipPath><clipPath id="401b08b750"><rect x="0" width="90" y="0" height="90"/></clipPath><clipPath id="3a7c5e3ec2"><path d="M 168.527344 107.730469 L 257.207031 107.730469 L 257.207031 196.410156 L 168.527344 196.410156 Z M 168.527344 107.730469 " clip-rule="nonzero"/></clipPath><clipPath id="c5857dd393"><path d="M 212.867188 107.730469 C 188.378906 107.730469 168.527344 127.582031 168.527344 152.070312 C 168.527344 176.558594 188.378906 196.410156 212.867188 196.410156 C 237.355469 196.410156 257.207031 176.558594 257.207031 152.070312 C 257.207031 127.582031 237.355469 107.730469 212.867188 107.730469 Z M 212.867188 107.730469 " clip-rule="nonzero"/></clipPath><clipPath id="c60480fe3f"><path d="M 0.527344 0.730469 L 89.207031 0.730469 L 89.207031 89.410156 L 0.527344 89.410156 Z M 0.527344 0.730469 " clip-rule="nonzero"/></clipPath><clipPath id="996253e02f"><path d="M 44.867188 0.730469 C 20.378906 0.730469 0.527344 20.582031 0.527344 45.070312 C 0.527344 69.558594 20.378906 89.410156 44.867188 89.410156 C 69.355469 89.410156 89.207031 69.558594 89.207031 45.070312 C 89.207031 20.582031 69.355469 0.730469 44.867188 0.730469 Z M 44.867188 0.730469 " clip-rule="nonzero"/></clipPath><clipPath id="8f5f71331f"><rect x="0" width="90" y="0" height="90"/></clipPath><clipPath id="c94a5d8792"><path d="M 106.628906 89.03125 L 193.082031 89.03125 L 193.082031 175.480469 L 106.628906 175.480469 Z M 106.628906 89.03125 " clip-rule="nonzero"/></clipPath><clipPath id="546aa3b406"><path d="M 149.855469 89.03125 C 125.984375 89.03125 106.628906 108.386719 106.628906 132.257812 C 106.628906 156.128906 125.984375 175.480469 149.855469 175.480469 C 173.726562 175.480469 193.082031 156.128906 193.082031 132.257812 C 193.082031 108.386719 173.726562 89.03125 149.855469 89.03125 Z M 149.855469 89.03125 " clip-rule="nonzero"/></clipPath><clipPath id="4148516208"><path d="M 0.628906 0.03125 L 87.082031 0.03125 L 87.082031 86.480469 L 0.628906 86.480469 Z M 0.628906 0.03125 " clip-rule="nonzero"/></clipPath><clipPath id="894f3d0b72"><path d="M 43.855469 0.03125 C 19.984375 0.03125 0.628906 19.386719 0.628906 43.257812 C 0.628906 67.128906 19.984375 86.480469 43.855469 86.480469 C 67.726562 86.480469 87.082031 67.128906 87.082031 43.257812 C 87.082031 19.386719 67.726562 0.03125 43.855469 0.03125 Z M 43.855469 0.03125 " clip-rule="nonzero"/></clipPath><clipPath id="102c32d8a6"><rect x="0" width="88" y="0" height="87"/></clipPath><clipPath id="d30c424b74"><path d="M 137 116 L 213 116 L 213 241 L 137 241 Z M 137 116 " clip-rule="nonzero"/></clipPath><clipPath id="1da14d0063"><path d="M 126.636719 129.566406 L 186.472656 105.480469 L 236.878906 230.71875 L 177.042969 254.800781 Z M 126.636719 129.566406 " clip-rule="nonzero"/></clipPath><clipPath id="3209701265"><path d="M 126.636719 129.566406 L 186.472656 105.480469 L 236.878906 230.71875 L 177.042969 254.800781 Z M 126.636719 129.566406 " clip-rule="nonzero"/></clipPath><clipPath id="75cf7c0376"><path d="M 126.636719 129.566406 L 186.472656 105.480469 L 236.878906 230.71875 L 177.042969 254.800781 Z M 126.636719 129.566406 " clip-rule="nonzero"/></clipPath></defs><rect x="-37.5" width="450" fill="#ffffff" y="-37.499999" height="449.999989" fill-opacity="1"/><rect x="-37.5" width="450" fill="#ffffff" y="-37.499999" height="449.999989" fill-opacity="1"/><g clip-path="url(#82efdf6105)"><g clip-path="url(#073a789632)"><g transform="matrix(1, 0, 0, 1, 172, 175)"><g clip-path="url(#56d66eaa53)"><g clip-path="url(#ccb011c4ad)"><g clip-path="url(#cf6fb2d2ea)"><path fill="#ea5b6f" d="M 0.621094 0.480469 L 88.277344 0.480469 L 88.277344 88.140625 L 0.621094 88.140625 Z M 0.621094 0.480469 " fill-opacity="1" fill-rule="nonzero"/></g></g></g></g></g></g><g clip-path="url(#7a012fa703)"><g clip-path="url(#2cebd3699f)"><g transform="matrix(1, 0, 0, 1, 113, 165)"><g clip-path="url(#401b08b750)"><g clip-path="url(#db6e42b1fb)"><g clip-path="url(#a7f8f4fa9d)"><path fill="#ff894f" d="M 0.605469 0.933594 L 89.007812 0.933594 L 89.007812 89.339844 L 0.605469 89.339844 Z M 0.605469 0.933594 " fill-opacity="1" fill-rule="nonzero"/></g></g></g></g></g></g><g clip-path="url(#3a7c5e3ec2)"><g clip-path="url(#c5857dd393)"><g transform="matrix(1, 0, 0, 1, 168, 107)"><g clip-path="url(#8f5f71331f)"><g clip-path="url(#c60480fe3f)"><g clip-path="url(#996253e02f)"><path fill="#ffcb61" d="M 0.527344 0.730469 L 89.207031 0.730469 L 89.207031 89.410156 L 0.527344 89.410156 Z M 0.527344 0.730469 " fill-opacity="1" fill-rule="nonzero"/></g></g></g></g></g></g><g clip-path="url(#c94a5d8792)"><g clip-path="url(#546aa3b406)"><g transform="matrix(1, 0, 0, 1, 106, 89)"><g clip-path="url(#102c32d8a6)"><g clip-path="url(#4148516208)"><g clip-path="url(#894f3d0b72)"><path fill="#77bef0" d="M 0.628906 0.03125 L 87.082031 0.03125 L 87.082031 86.480469 L 0.628906 86.480469 Z M 0.628906 0.03125 " fill-opacity="1" fill-rule="nonzero"/></g></g></g></g></g></g><g clip-path="url(#d30c424b74)"><g clip-path="url(#1da14d0063)"><g clip-path="url(#3209701265)"><g clip-path="url(#75cf7c0376)"><path fill="#000000" d="M 206.464844 160.265625 C 205.632812 159.8125 204.769531 159.441406 203.871094 159.148438 C 203.554688 159.054688 203.28125 158.890625 203.050781 158.65625 C 202.816406 158.421875 202.65625 158.148438 202.5625 157.832031 C 202.476562 157.011719 202.554688 156.210938 202.796875 155.421875 C 202.976562 154.484375 202.984375 153.546875 202.816406 152.605469 C 202.34375 150.25 200.699219 148.4375 198.757812 147.128906 C 198.949219 141.945312 197.929688 137.011719 195.691406 132.328125 C 191.503906 123.832031 183.214844 118.207031 173.960938 116.785156 C 171.734375 116.4375 169.496094 116.328125 167.246094 116.460938 C 164.996094 116.589844 162.785156 116.957031 160.617188 117.558594 C 158.445312 118.164062 156.367188 118.988281 154.371094 120.035156 C 152.378906 121.082031 150.519531 122.332031 148.792969 123.777344 C 147.085938 125.242188 145.550781 126.871094 144.1875 128.664062 C 142.824219 130.457031 141.664062 132.375 140.703125 134.414062 C 139.746094 136.453125 139.007812 138.570312 138.496094 140.769531 C 137.984375 142.964844 137.707031 145.191406 137.664062 147.449219 C 137.664062 151.199219 138.292969 154.839844 139.554688 158.375 C 140.816406 161.910156 142.632812 165.128906 145.003906 168.035156 C 145.183594 172.742188 146.0625 177.863281 149.160156 181.59375 C 150.46875 183.144531 152.050781 184.324219 153.910156 185.128906 C 155.160156 185.714844 156.261719 186.507812 157.210938 187.515625 C 158.160156 188.523438 158.890625 189.667969 159.40625 190.957031 C 160.21875 192.886719 160.523438 195.175781 161.847656 196.859375 C 163.335938 198.753906 165.9375 199.300781 168.203125 198.78125 C 168.867188 198.625 169.503906 198.390625 170.105469 198.066406 C 180.511719 209.042969 190.921875 220.015625 201.328125 230.992188 L 210.347656 240.503906 C 210.492188 240.683594 210.679688 240.804688 210.902344 240.863281 C 211.128906 240.921875 211.347656 240.90625 211.5625 240.820312 C 211.777344 240.734375 211.945312 240.589844 212.066406 240.394531 C 212.191406 240.195312 212.242188 239.980469 212.222656 239.746094 C 210.164062 221.941406 208.109375 204.136719 206.054688 186.328125 C 205.53125 181.8125 205.011719 177.296875 204.488281 172.78125 C 205.351562 172.910156 206.210938 172.871094 207.058594 172.667969 C 207.875 172.523438 208.605469 172.1875 209.25 171.664062 C 209.894531 171.144531 210.378906 170.496094 210.695312 169.730469 C 210.925781 168.917969 211 168.09375 210.925781 167.25 C 210.847656 166.410156 210.625 165.609375 210.253906 164.851562 C 209.460938 162.933594 208.199219 161.402344 206.464844 160.265625 Z M 172.257812 187.046875 C 170.804688 184.953125 168.394531 184.460938 166.40625 183.097656 C 166.34375 183.054688 166.285156 183.007812 166.226562 182.960938 C 166.253906 182.882812 166.273438 182.804688 166.285156 182.722656 C 166.527344 181.050781 167.117188 179.507812 168.046875 178.101562 C 168.980469 176.691406 170.167969 175.550781 171.609375 174.679688 C 173.132812 173.644531 174.816406 173.128906 176.660156 173.132812 C 178.5 173.238281 179.636719 174.332031 180.34375 175.964844 C 181.128906 177.78125 181.675781 179.675781 183.117188 181.117188 C 183.84375 181.808594 184.671875 182.355469 185.59375 182.75 C 186.519531 183.144531 187.480469 183.367188 188.484375 183.414062 C 189.480469 183.523438 190.453125 183.40625 191.394531 183.066406 C 192.335938 182.726562 193.15625 182.199219 193.855469 181.480469 C 194.859375 180.242188 195.371094 178.824219 195.398438 177.226562 C 195.503906 175.84375 195.273438 174.519531 194.703125 173.25 C 194.046875 171.890625 192.765625 170.777344 192.453125 169.269531 C 192.136719 167.746094 192.546875 165.515625 194 164.6875 C 195.816406 163.652344 198.355469 164.925781 199.28125 166.613281 C 200.203125 168.296875 200.355469 170.28125 201.871094 171.621094 C 202 171.734375 202.136719 171.835938 202.277344 171.929688 C 202.421875 173.15625 202.5625 174.382812 202.703125 175.609375 L 178.988281 204.402344 L 171.789062 196.8125 C 172.566406 196.035156 173.105469 195.121094 173.40625 194.0625 C 173.738281 192.867188 173.804688 191.65625 173.601562 190.429688 C 173.402344 189.203125 172.953125 188.078125 172.257812 187.046875 Z M 209.777344 236.871094 C 204.519531 231.324219 199.257812 225.78125 194 220.234375 L 206.152344 205.480469 C 206.898438 211.933594 207.644531 218.390625 208.390625 224.847656 C 208.851562 228.855469 209.316406 232.863281 209.777344 236.871094 Z M 205.816406 202.582031 C 205.808594 202.59375 205.800781 202.601562 205.789062 202.613281 L 192.542969 218.695312 C 188.503906 214.4375 184.46875 210.183594 180.429688 205.925781 C 180.492188 205.875 180.546875 205.820312 180.597656 205.757812 L 203.039062 178.515625 Z M 208.851562 168.421875 C 208.667969 170.007812 207.089844 170.703125 205.648438 170.757812 C 204.855469 170.808594 204.121094 170.625 203.445312 170.203125 C 202.632812 169.648438 202.316406 168.652344 202 167.765625 C 201.304688 165.8125 200.449219 164.085938 198.546875 163.066406 C 196.8125 162.140625 194.550781 161.890625 192.828125 162.949219 C 192.09375 163.464844 191.507812 164.113281 191.070312 164.898438 C 190.628906 165.683594 190.382812 166.523438 190.328125 167.421875 C 190.226562 168.261719 190.28125 169.089844 190.488281 169.90625 C 190.695312 170.726562 191.039062 171.480469 191.527344 172.171875 C 192.363281 173.40625 193.15625 174.464844 193.296875 176.007812 C 193.449219 177.242188 193.246094 178.414062 192.6875 179.523438 C 191.730469 181.222656 189.640625 181.539062 187.871094 181.234375 C 186.882812 181.089844 185.992188 180.714844 185.195312 180.113281 C 184.398438 179.511719 183.789062 178.753906 183.375 177.84375 C 182.601562 176.199219 182.1875 174.316406 180.933594 172.9375 C 178.042969 169.746094 173.242188 171.113281 170.128906 173.140625 C 168.746094 174.039062 167.570312 175.152344 166.605469 176.492188 C 165.640625 177.828125 164.945312 179.296875 164.527344 180.894531 C 163.683594 179.085938 163.792969 176.867188 164.257812 174.84375 C 164.5625 173.523438 162.484375 173.226562 162.183594 174.535156 C 161.59375 177.09375 161.523438 179.898438 162.84375 182.257812 C 163.949219 184.222656 165.757812 185.21875 167.714844 186.164062 C 169.628906 187.089844 171.074219 188.335938 171.488281 190.53125 C 171.902344 192.710938 171.296875 195.042969 169.265625 196.171875 C 167.574219 197.109375 164.925781 197.285156 163.566406 195.65625 C 162.355469 194.207031 162.101562 192 161.394531 190.289062 C 160.394531 187.714844 158.753906 185.652344 156.46875 184.105469 C 154.777344 183.046875 152.945312 182.503906 151.488281 181.058594 C 148.75 178.335938 147.6875 174.433594 147.285156 170.617188 C 147.445312 170.78125 147.597656 170.945312 147.757812 171.109375 C 148.019531 171.367188 148.289062 171.621094 148.558594 171.867188 C 149.558594 172.78125 150.839844 171.117188 149.84375 170.207031 C 148.839844 169.289062 147.902344 168.304688 147.03125 167.261719 C 146.96875 167.039062 146.832031 166.875 146.628906 166.765625 C 144.875 164.59375 143.433594 162.226562 142.308594 159.667969 C 141.1875 157.109375 140.421875 154.449219 140.011719 151.683594 C 139.738281 149.5 139.703125 147.316406 139.914062 145.125 C 140.121094 142.933594 140.566406 140.796875 141.25 138.707031 C 141.929688 136.617188 142.832031 134.628906 143.953125 132.742188 C 145.074219 130.855469 146.386719 129.113281 147.894531 127.519531 C 149.351562 125.996094 150.953125 124.648438 152.703125 123.472656 C 154.449219 122.296875 156.304688 121.324219 158.261719 120.550781 C 160.222656 119.777344 162.238281 119.222656 164.320312 118.886719 C 166.398438 118.550781 168.488281 118.441406 170.59375 118.554688 C 179.21875 119.019531 187.457031 123.203125 192.269531 130.527344 C 196.308594 136.683594 197.429688 144.539062 196.171875 151.714844 C 196.121094 152.003906 196.066406 152.292969 196.007812 152.582031 C 195.726562 153.910156 197.804688 154.210938 198.082031 152.890625 C 198.308594 151.8125 198.476562 150.722656 198.589844 149.628906 C 199.203125 150.09375 199.703125 150.660156 200.089844 151.328125 C 200.476562 151.992188 200.722656 152.707031 200.824219 153.472656 C 200.964844 154.996094 200.226562 156.453125 200.460938 157.976562 C 200.601562 158.753906 200.9375 159.433594 201.46875 160.015625 C 202 160.601562 202.644531 161 203.402344 161.210938 C 205.0625 161.703125 206.402344 162.652344 207.417969 164.058594 C 208.421875 165.339844 208.902344 166.792969 208.851562 168.421875 Z M 182.410156 146.355469 C 184.414062 148.441406 184.742188 151.886719 183.648438 154.492188 C 182.304688 157.699219 178.742188 159.039062 175.480469 158.21875 C 173.964844 157.886719 172.703125 157.128906 171.695312 155.945312 C 170.988281 154.890625 170.570312 153.738281 170.433594 152.476562 C 170.132812 150.832031 169.511719 149.316406 168.578125 147.925781 C 167.644531 146.539062 166.472656 145.398438 165.0625 144.5 C 163.933594 143.746094 165.226562 142.089844 166.34375 142.839844 C 167.835938 143.796875 169.097656 145 170.125 146.441406 C 171.15625 147.886719 171.882812 149.472656 172.308594 151.195312 C 172.546875 152.234375 172.582031 153.429688 173.144531 154.363281 C 173.527344 154.894531 174.003906 155.328125 174.570312 155.660156 C 175.136719 155.992188 175.746094 156.191406 176.398438 156.265625 C 177.125 156.417969 177.851562 156.410156 178.574219 156.242188 C 179.296875 156.074219 179.953125 155.765625 180.539062 155.308594 C 181.046875 154.84375 181.4375 154.292969 181.71875 153.664062 C 181.996094 153.035156 182.140625 152.375 182.152344 151.683594 C 182.261719 150.363281 181.929688 149.167969 181.152344 148.09375 C 180.390625 147.132812 179.285156 146.484375 178.4375 145.601562 C 176.144531 143.214844 175.523438 139.84375 175.847656 136.652344 C 175.980469 135.300781 178.058594 135.613281 177.921875 136.960938 C 177.644531 138.980469 177.96875 140.898438 178.886719 142.71875 C 179.75 144.273438 181.214844 145.113281 182.410156 146.355469 Z M 182.410156 146.355469 " fill-opacity="1" fill-rule="nonzero"/></g></g></g></g></svg>